<svg width="148" height="148" viewBox="0 0 148 148" fill="none" xmlns="http://www.w3.org/2000/svg">
<path fill-rule="evenodd" clip-rule="evenodd" d="M148 74C148 81.0253 147.063 88.0506 145.034 94.4514C141.287 107.565 134.105 119.118 124.27 128.173C117.401 134.574 109.127 139.726 100.072 143.16C91.9536 146.283 83.0549 148 73.8439 148C72.595 148 71.1899 148 69.9409 147.844C68.0675 147.688 66.038 147.532 64.1646 147.375C49.9578 145.502 36.8439 139.57 26.384 130.671C22.481 127.392 18.8903 123.645 15.6118 119.586C13.27 116.464 11.0844 113.342 9.05488 109.907C8.58652 109.127 8.11814 108.346 7.80591 107.409C7.33755 106.473 6.86922 105.692 6.55698 104.755C5.30803 101.945 4.2152 98.9789 3.27849 96.0126C2.65402 93.827 2.02954 91.6413 1.56118 89.4556C1.24894 87.8945 0.936709 86.3333 0.780591 84.616C0.312236 81.1814 0 77.7468 0 74.1561C0 72.1266 1.90527e-05 70.097 0.312255 68.0674C0.468373 66.8185 0.624472 65.5696 0.780591 64.3206C1.7173 56.9831 3.74686 50.1139 6.71311 43.7131C8.11817 40.5907 9.83544 37.4683 11.7089 34.5021C14.8312 29.6624 18.4219 25.135 22.6371 21.232C35.9072 8.27421 54.173 0.312195 74.1561 0.312195C74.9367 0.312195 75.7173 0.312195 76.4979 0.312195C77.2785 0.312195 78.2152 0.312204 78.9958 0.468322C83.211 0.780559 87.4262 1.40503 91.3291 2.34173C93.6709 2.96621 96.0126 3.59068 98.1983 4.37127C99.7595 4.83963 101.165 5.46411 102.726 6.08858C103.819 6.55694 104.911 7.02528 106.004 7.49364C106.16 7.64976 106.316 7.64977 106.629 7.80589C113.81 11.2405 120.367 15.924 125.987 21.5443C126.768 22.3249 127.548 23.1055 128.329 24.0422C128.797 24.6666 129.422 25.135 129.89 25.7595C130.671 26.6962 131.608 27.789 132.388 28.7257C135.354 32.4725 137.852 36.5316 140.038 40.7468C142.536 45.7426 144.565 51.0506 145.97 56.5147C147.219 61.8227 148 67.9114 148 74Z" fill="url(#paint0_radial_303_597)"/>
<path fill-rule="evenodd" clip-rule="evenodd" d="M106.316 7.49366C106.004 7.49366 105.848 7.49367 105.536 7.64979C104.755 7.80591 103.975 7.64978 103.194 7.49366C102.57 7.33754 102.257 7.02533 101.477 7.02533C100.54 6.86921 99.7595 6.55693 98.8228 6.40082C97.8861 6.2447 97.1055 5.93246 96.1688 5.62023C95.3882 5.30799 95.076 5.46411 94.4515 5.62023C93.827 5.77634 93.3586 5.46414 92.7342 5.30802C92.1097 4.99578 91.3291 4.99578 90.7046 4.83966C88.8312 4.52742 86.9578 3.90294 85.0844 3.43458C83.9915 3.12235 82.8988 3.12235 81.6498 3.12235C80.7131 3.12235 79.9325 3.43458 78.9958 3.43458C78.3713 3.43458 77.9029 3.27848 77.2785 3.27848C76.654 3.12236 76.0295 3.27848 75.4051 3.27848C74.4684 3.12236 74 2.96624 73.0633 3.27848C72.2827 3.4346 71.8143 3.43459 71.0337 3.59071C70.2532 3.59071 69.3164 3.90295 68.5358 4.05907C67.1308 4.3713 65.5696 4.68353 64.1646 4.68353C63.2278 4.68353 61.9789 4.3713 61.1983 4.68353C60.73 4.83965 60.4177 5.46412 59.9493 5.77635C59.1688 6.55694 58.3882 7.18141 57.7637 7.962C57.1392 8.74259 56.5148 9.67933 56.5148 10.7722C56.5148 11.7089 56.9831 12.8017 57.4515 13.5823C57.9198 14.519 58.076 15.2996 57.1392 15.924C56.0464 16.7046 54.6414 17.3291 53.3924 17.7975C52.4557 18.1097 51.6751 18.2658 51.0506 17.6413C50.7384 17.4852 50.5823 17.0169 50.2701 16.7046C49.9578 16.5485 49.4894 16.7046 49.1772 16.8608C48.2405 17.173 47.3038 17.4852 46.3671 17.6413C45.7426 17.7975 45.2743 18.1097 44.6498 18.1097C44.0253 18.2658 43.5569 17.7975 42.7764 17.9536C41.8396 18.1097 40.7468 18.5781 39.8101 18.5781C39.0295 18.5781 38.0928 18.2658 37.4683 17.9536C37.1561 17.7975 37 17.4852 36.5316 17.6413C36.2194 17.6413 35.7511 18.1097 35.595 18.4219C35.2827 18.7342 35.2827 19.2025 34.9704 19.5148C34.6582 19.9831 34.5021 20.2953 34.1899 20.7637C33.7215 21.5443 33.2532 22.3249 32.7848 23.1055C32.4726 23.5738 32.1604 24.3544 31.692 24.8228C31.5359 25.135 31.0675 25.2911 30.7553 25.4472C29.9747 25.9156 29.1941 26.5401 28.4135 27.0084C27.0085 28.1013 25.6034 29.3502 24.1983 30.443C23.1055 31.2236 21.5443 31.692 20.2954 32.3164C19.5148 32.6287 18.7342 32.9409 17.9536 33.2532C17.6413 33.4093 17.173 33.4093 17.0169 33.7215C16.7046 34.0337 16.5485 34.346 16.3924 34.8143C15.7679 35.5949 14.9874 36.5317 14.519 37.4684C14.2068 38.0928 14.0507 38.5611 13.7384 39.1856C13.4262 39.9662 12.9578 40.7468 12.8017 41.6835C12.1772 43.4008 12.1772 45.2742 11.3967 46.9915C11.0844 47.9282 10.4599 48.865 9.99155 49.8017C9.21096 51.3629 9.05487 53.2363 8.89875 54.9536C8.74263 55.8903 8.89876 57.1392 9.05488 58.0759C9.211 59.1688 9.21096 60.2616 9.21096 61.3544C9.21096 62.4472 8.43038 63.6962 7.80591 64.4768C7.18143 65.2574 6.0886 65.5696 5.30801 66.3502C4.68353 66.9747 3.90298 67.5991 3.59075 68.5359C3.43463 68.8481 3.59075 69.3164 3.59075 69.7848C3.43463 70.7215 3.12236 71.5021 3.12236 72.4388C2.96624 73.5316 2.96623 74.6244 2.96623 75.8734C2.96623 76.4978 2.96623 76.9662 2.96623 77.5907C2.96623 78.2152 3.12237 78.6835 3.27849 79.1519C3.27849 79.4641 3.27849 79.9325 3.27849 80.2447C3.27849 80.7131 3.59075 81.1814 3.59075 81.4936C3.90298 82.5865 4.05909 83.5232 4.21521 84.616C4.37133 85.5527 4.83968 86.4894 4.9958 87.4262C5.46415 88.6751 5.62028 89.924 5.93252 91.3291C6.08864 92.2658 6.08861 93.3586 6.24472 94.2953C6.40084 95.0759 6.55698 95.8565 6.55698 96.6371C6.55698 97.8861 6.24472 98.9789 6.24472 100.228C6.24472 102.257 7.02534 104.287 7.4937 106.316C7.64982 106.941 7.80592 107.409 7.96203 108.034C2.81014 98.0422 0 86.6455 0 74.6245C0 59.9494 4.21518 46.3671 11.5527 34.9705C14.6751 30.1308 18.2658 25.6034 22.481 21.7004C35.751 8.74262 54.0169 0.780579 74 0.780579C75.5612 0.780579 77.2785 0.780588 78.8397 0.936706C88.6751 0.780588 97.8861 3.43459 106.316 7.49366Z" fill="url(#paint1_linear_303_597)"/>
<path fill-rule="evenodd" clip-rule="evenodd" d="M43.713 100.384C42.6202 96.6372 41.3713 92.2659 40.1223 87.7385C41.2151 92.1098 42.4641 96.325 43.713 100.384Z" fill="url(#paint2_linear_303_597)"/>
<path fill-rule="evenodd" clip-rule="evenodd" d="M41.5273 140.662C41.5273 140.662 44.4936 118.025 46.6792 118.025C48.3965 118.025 51.3628 121.46 57.2953 125.987C59.0126 127.236 60.886 128.641 63.0716 130.046C64.945 131.295 67.2868 132.544 69.9408 133.793C74.3122 135.823 79.4641 138.008 83.9915 139.726C91.329 142.536 97.2615 144.409 97.2615 144.409L98.3544 143.629C98.3544 143.629 93.2024 142.536 86.3333 140.194C86.3333 140.194 93.5147 128.485 102.726 117.869C111.937 107.253 147.375 82.2743 147.375 82.2743L147.688 78.6836C147.688 78.6836 137.54 87.114 126.299 96.0127C126.299 96.0127 133.793 44.4937 136.135 36.2195L133.793 35.2828C133.793 35.2828 128.173 86.0211 122.084 99.4473C111.468 107.878 100.696 115.84 97.7299 116.776C91.0168 118.962 66.3501 99.1351 66.194 99.1351C65.5695 78.6836 66.0379 55.8904 67.7552 49.9579C92.8902 26.0718 117.089 14.2068 117.089 14.2068L115.996 13.114C115.996 13.114 91.9535 29.9747 91.1729 26.8524C90.3923 23.5739 106.316 7.33762 106.316 7.33762L104.443 7.02541C104.443 7.02541 86.8016 29.6625 62.4472 53.5486C45.2742 70.4093 39.4978 75.5612 37.6244 77.1224C34.502 59.4811 34.3459 40.903 39.4978 28.8819C49.1771 6.40094 62.7594 1.24902 62.7594 1.24902C60.5738 1.24902 55.8902 2.34185 55.8902 2.34185C55.8902 2.34185 49.1771 10.3039 46.2109 14.9874C43.4007 19.6709 39.4978 28.7258 37.156 27.3208C34.8143 25.9157 27.789 16.0802 27.789 16.0802L27.0084 16.8608C27.0084 16.8608 33.7214 23.2617 34.9704 28.1014C36.2193 32.941 35.1265 63.2279 32.0041 61.979C28.8818 60.8861 7.02522 42.152 7.02522 42.152L6.24463 43.7132C6.24463 43.7132 29.194 59.3249 32.0041 64.9452C33.4092 67.5992 36.8438 77.7469 39.81 87.7384C39.4978 86.3334 38.405 81.3376 38.8733 79.3081C46.5231 67.9115 55.2657 62.1351 63.8522 53.5486C65.7256 64.1646 65.7256 101.477 65.5695 119.899L56.983 124.114C54.4851 121.772 52.2995 119.274 50.5822 116.464C48.0843 112.249 45.5864 106.629 43.4008 100.384C44.6497 105.224 45.5864 108.814 45.5864 109.907C45.5864 113.654 39.9662 140.194 39.9662 140.194L41.5273 140.662ZM126.299 96.1688C125.051 97.2616 123.645 98.1983 122.396 99.2912L126.299 96.1688ZM66.3501 99.9157V101.477C66.3501 100.852 66.3501 100.384 66.3501 99.9157ZM66.3501 101.477C66.3501 101.477 90.08 116.152 93.983 118.962C97.5737 121.46 86.021 137.072 84.3037 139.414C79.7763 137.696 74.6244 135.667 69.6286 132.857C68.0674 128.485 66.9746 115.84 66.3501 101.477ZM65.7256 121.304C65.7256 126.924 65.5695 130.515 65.5695 130.515C63.0716 128.954 60.5737 127.08 58.3881 125.207C59.9493 123.802 63.0716 121.616 65.7256 121.304Z" fill="url(#paint3_linear_303_597)"/>
<path fill-rule="evenodd" clip-rule="evenodd" d="M23.2616 94.2955C19.827 89.2997 0 71.5023 0 71.5023V76.1858C0 76.1858 17.9536 86.8018 22.7933 95.5444C27.6329 104.287 22.481 127.393 22.481 127.393L24.3544 129.266C24.5105 129.266 28.2574 101.633 23.2616 94.2955Z" fill="url(#paint4_linear_303_597)"/>
<path opacity="0.3" fill-rule="evenodd" clip-rule="evenodd" d="M57.6083 1.87341C57.6083 1.87341 63.853 69.0042 65.7264 74.6245C67.5999 80.4008 84.3045 90.8608 91.1737 92.1097C98.0429 93.3587 115.372 99.7595 119.899 99.4472C124.427 99.2911 144.098 97.5738 144.098 97.5738L146.752 86.9578C146.752 86.9578 110.064 58.5443 97.1061 32.6287C84.1483 6.71309 84.4606 0.624487 84.4606 0.624487L78.8403 0C78.8403 0 92.8909 27.1646 97.1061 40.2785C101.165 53.5485 118.651 66.5063 126.456 74.1561C134.262 81.8059 131.921 95.076 122.553 94.4515C113.03 93.827 80.7138 95.7004 72.7518 71.1898C69.3172 60.5738 66.1948 50.27 63.853 32.4726C61.199 15.1435 57.6083 1.87341 57.6083 1.87341Z" fill="url(#paint5_radial_303_597)"/>
<path opacity="0.3" fill-rule="evenodd" clip-rule="evenodd" d="M2.96489 53.2364C2.96489 53.2364 28.2561 62.9158 37.9354 69.4728C47.6147 76.0297 73.6864 83.5234 79.1506 89.2997C84.6147 95.0761 93.9817 105.692 93.2011 110.844C92.4205 115.84 59.6358 112.249 46.5219 107.409C33.408 102.57 11.5514 92.5782 8.58515 87.7386C5.61891 83.055 0.310913 80.0888 0.310913 80.0888L1.0915 86.8018C1.0915 86.8018 33.7202 108.346 38.0915 110.063C42.4628 111.781 87.1126 120.211 99.602 117.869C99.602 117.869 105.535 112.874 83.8341 91.3293C75.0915 82.7428 59.4797 75.7175 44.9607 69.1605C23.4164 59.3251 3.43327 51.6753 3.43327 51.6753L2.96489 53.2364Z" fill="url(#paint6_radial_303_597)"/>
<path opacity="0.3" fill-rule="evenodd" clip-rule="evenodd" d="M92.7343 2.49789C92.7343 2.49789 94.4517 21.7004 100.696 37.4684C106.941 53.2363 119.118 55.8903 124.27 61.8227C129.578 67.5991 143.317 75.405 147.844 72.2827L147.532 84.4599C147.532 84.4599 98.0423 64.789 84.304 0.780579L92.7343 2.49789Z" fill="url(#paint7_radial_303_597)"/>
<path opacity="0.3" fill-rule="evenodd" clip-rule="evenodd" d="M14.6746 118.181C14.6746 118.181 35.7506 112.405 61.354 116.308C94.6071 121.304 101.632 123.802 104.599 127.392C107.565 130.983 108.658 139.413 108.658 139.413L112.248 137.384C112.248 137.384 110.375 120.992 106.472 118.338C102.569 115.684 71.1894 121.148 38.2485 110.063L10.6156 112.093L14.6746 118.181Z" fill="url(#paint8_radial_303_597)"/>
<path opacity="0.3" fill-rule="evenodd" clip-rule="evenodd" d="M113.029 98.1985C111.624 94.4517 91.0167 89.2998 87.5821 92.1099C84.7719 94.4517 103.194 115.684 107.721 116.308C112.249 116.933 114.434 101.945 113.029 98.1985ZM105.536 109.907C100.228 108.971 88.0504 96.4812 90.7044 93.9833C92.8901 91.9538 109.439 97.2618 110.688 100.384C111.78 103.507 110.844 111 105.536 109.907Z" fill="url(#paint9_radial_303_597)"/>
<path fill-rule="evenodd" clip-rule="evenodd" d="M67.7546 75.7172C66.1934 70.0969 57.6069 1.87329 57.6069 1.87329L56.0457 2.18555C56.0457 2.18555 69.4719 69.0041 58.2314 70.8775C49.3327 72.4387 3.90227 50.1138 3.90227 50.1138L2.80947 53.3923C2.80947 53.3923 59.3242 71.0336 80.4001 89.4556C87.5816 95.7003 93.6702 102.882 98.6659 109.907C101.008 113.186 98.6659 117.557 94.763 117.713C36.687 118.181 0.936035 86.9577 0.936035 86.9577L1.40437 89.4556C1.40437 89.4556 36.8432 108.19 33.2525 110.219C29.6618 112.249 9.0542 110.219 9.0542 110.219L10.3031 112.405C10.3031 112.405 26.8516 111 48.2398 113.966C66.3495 116.464 96.7926 120.211 105.847 121.304C110.531 129.734 112.873 136.135 112.092 137.54L115.683 135.354C109.906 119.118 111.155 100.852 119.742 99.7594C128.328 98.8227 142.535 101.789 142.535 101.789L143.94 97.8859C96.6364 99.9155 69.4719 81.3374 67.7546 75.7172ZM65.5689 77.9028C64.1639 77.9028 58.8559 73.9999 59.4803 73.3754C60.1048 72.7509 63.3833 65.4134 64.4761 66.3501C65.5689 67.4429 66.8179 77.7467 65.5689 77.9028ZM35.4381 109.907C35.4381 109.907 35.7504 108.814 36.2187 108.658C36.6871 108.502 46.3664 111.78 45.742 112.249C45.2736 112.717 35.4381 111.156 35.4381 109.907ZM108.97 114.122C105.379 113.81 83.9909 93.8269 87.5816 92.1096C90.2356 90.8606 109.594 95.3881 111.312 99.1349C112.873 102.882 112.404 114.434 108.97 114.122Z" fill="url(#paint10_linear_303_597)"/>
<path fill-rule="evenodd" clip-rule="evenodd" d="M82.4301 1.24884C82.4301 1.24884 87.582 23.2615 107.721 50.5822C127.86 77.9028 146.751 87.1138 146.751 87.1138L147.531 82.2741C147.531 82.2741 130.202 79.464 109.907 52.4556C86.1769 20.9197 86.333 1.09271 86.333 1.09271L82.4301 1.24884Z" fill="url(#paint11_linear_303_597)"/>
<defs>
<radialGradient id="paint0_radial_303_597" cx="0" cy="0" r="1" gradientUnits="userSpaceOnUse" gradientTransform="translate(28.1542 39.4051) scale(130.731 130.731)">
<stop offset="0.00558659" stop-color="#FF7263"/>
<stop offset="0.2092" stop-color="#FC6F63"/>
<stop offset="0.3674" stop-color="#F46562"/>
<stop offset="0.5102" stop-color="#E55560"/>
<stop offset="0.6441" stop-color="#D03D5D"/>
<stop offset="0.7704" stop-color="#B6205A"/>
<stop offset="0.8771" stop-color="#9A0057"/>
<stop offset="0.986" stop-color="#9A00AE"/>
</radialGradient>
<linearGradient id="paint1_linear_303_597" x1="-0.00281013" y1="53.7084" x2="106.391" y2="53.7084" gradientUnits="userSpaceOnUse">
<stop offset="0.0111732" stop-color="#FF9D85"/>
<stop offset="0.2899" stop-color="#FF9A84"/>
<stop offset="0.4943" stop-color="#FF917F"/>
<stop offset="0.6749" stop-color="#FF8178"/>
<stop offset="0.8407" stop-color="#FF6A6E"/>
<stop offset="0.9968" stop-color="#FF4E61"/>
<stop offset="1" stop-color="#FF4D61"/>
</linearGradient>
<linearGradient id="paint2_linear_303_597" x1="44.1575" y1="91.7937" x2="39.7005" y2="96.2507" gradientUnits="userSpaceOnUse">
<stop offset="0.0111732" stop-color="#FF9D85"/>
<stop offset="0.2899" stop-color="#FF9A84"/>
<stop offset="0.4943" stop-color="#FF917F"/>
<stop offset="0.6749" stop-color="#FF8178"/>
<stop offset="0.8407" stop-color="#FF6A6E"/>
<stop offset="0.9968" stop-color="#FF4E61"/>
<stop offset="1" stop-color="#FF4D61"/>
</linearGradient>
<linearGradient id="paint3_linear_303_597" x1="123.082" y1="20.0267" x2="21.7011" y2="121.407" gradientUnits="userSpaceOnUse">
<stop offset="0.0111732" stop-color="#FF9D85"/>
<stop offset="0.2899" stop-color="#FF9A84"/>
<stop offset="0.4943" stop-color="#FF917F"/>
<stop offset="0.6749" stop-color="#FF8178"/>
<stop offset="0.8407" stop-color="#FF6A6E"/>
<stop offset="0.9968" stop-color="#FF4E61"/>
<stop offset="1" stop-color="#FF4D61"/>
</linearGradient>
<linearGradient id="paint4_linear_303_597" x1="21.1591" y1="91.5778" x2="3.9815" y2="108.755" gradientUnits="userSpaceOnUse">
<stop offset="0.0111732" stop-color="#FF9D85"/>
<stop offset="0.2899" stop-color="#FF9A84"/>
<stop offset="0.4943" stop-color="#FF917F"/>
<stop offset="0.6749" stop-color="#FF8178"/>
<stop offset="0.8407" stop-color="#FF6A6E"/>
<stop offset="0.9968" stop-color="#FF4E61"/>
<stop offset="1" stop-color="#FF4D61"/>
</linearGradient>
<radialGradient id="paint5_radial_303_597" cx="0" cy="0" r="1" gradientUnits="userSpaceOnUse" gradientTransform="translate(106.751 75.0677) scale(53.5206 53.5206)">
<stop stop-color="white"/>
<stop offset="1" stop-color="#623964"/>
</radialGradient>
<radialGradient id="paint6_radial_303_597" cx="0" cy="0" r="1" gradientUnits="userSpaceOnUse" gradientTransform="translate(76.1272 105.577) scale(54.6609 54.6609)">
<stop stop-color="white"/>
<stop offset="1" stop-color="#623964"/>
</radialGradient>
<radialGradient id="paint7_radial_303_597" cx="0" cy="0" r="1" gradientUnits="userSpaceOnUse" gradientTransform="translate(119.372 63.8148) scale(40.174 40.174)">
<stop stop-color="white"/>
<stop offset="1" stop-color="#623964"/>
</radialGradient>
<radialGradient id="paint8_radial_303_597" cx="0" cy="0" r="1" gradientUnits="userSpaceOnUse" gradientTransform="translate(66.5552 132.133) scale(52.8297 52.8297)">
<stop stop-color="white"/>
<stop offset="1" stop-color="#623964"/>
</radialGradient>
<radialGradient id="paint9_radial_303_597" cx="0" cy="0" r="1" gradientUnits="userSpaceOnUse" gradientTransform="translate(107.152 111.59) scale(15.8266 15.8266)">
<stop stop-color="white"/>
<stop offset="1" stop-color="#623964"/>
</radialGradient>
<linearGradient id="paint10_linear_303_597" x1="1.08887" y1="69.5372" x2="144.046" y2="69.5372" gradientUnits="userSpaceOnUse">
<stop offset="0.0111732" stop-color="#FFBB85"/>
<stop offset="0.2124" stop-color="#FEB887"/>
<stop offset="0.36" stop-color="#F9AF8C"/>
<stop offset="0.4905" stop-color="#F19F95"/>
<stop offset="0.6111" stop-color="#E588A2"/>
<stop offset="0.7249" stop-color="#D76BB2"/>
<stop offset="0.8337" stop-color="#C547C7"/>
<stop offset="0.9364" stop-color="#B01EDE"/>
<stop offset="1" stop-color="#A100EF"/>
</linearGradient>
<linearGradient id="paint11_linear_303_597" x1="82.3782" y1="44.0839" x2="147.534" y2="44.0839" gradientUnits="userSpaceOnUse">
<stop offset="0.0111732" stop-color="#FF9D85"/>
<stop offset="0.2264" stop-color="#FD9A87"/>
<stop offset="0.3842" stop-color="#F8918D"/>
<stop offset="0.5237" stop-color="#EE8198"/>
<stop offset="0.6527" stop-color="#E16AA7"/>
<stop offset="0.7744" stop-color="#CF4DBB"/>
<stop offset="0.889" stop-color="#BA2AD3"/>
<stop offset="0.999" stop-color="#A100EF"/>
<stop offset="1" stop-color="#A100EF"/>
</linearGradient>
</defs>
</svg>
