<svg width="169" height="193" viewBox="0 0 169 193" fill="none" xmlns="http://www.w3.org/2000/svg">
<path fill-rule="evenodd" clip-rule="evenodd" d="M12.2025 64.6645C12.2025 64.6645 13.2053 56.3076 13.8739 51.7949C13.8739 51.7949 19.5566 43.7723 28.582 37.2539L40.616 37.9224C40.616 37.9224 16.2138 57.4776 12.2025 64.6645Z" fill="url(#paint0_linear_303_531)"/>
<path fill-rule="evenodd" clip-rule="evenodd" d="M28.5824 37.2539C28.5824 37.2539 28.5825 43.9394 22.3983 49.2878C16.2142 54.6362 13.54 52.7977 13.54 52.7977L12.0358 63.4946L40.4492 37.9224L28.5824 37.2539Z" fill="url(#paint1_linear_303_531)"/>
<path fill-rule="evenodd" clip-rule="evenodd" d="M158.28 107.285C158.28 114.806 157.277 122.327 155.271 129.18C151.26 143.219 143.404 155.587 133.042 165.281C125.688 172.134 116.83 177.65 107.136 181.327C98.4443 184.67 88.9175 186.508 79.0563 186.508C77.7192 186.508 76.215 186.508 74.8779 186.341C72.8722 186.174 70.6994 186.007 68.6937 185.839C53.4842 183.834 39.4446 177.483 28.2463 167.956C24.0679 164.446 20.2237 160.434 16.7138 156.089C14.2067 152.746 11.8668 149.403 9.86114 145.726C9.35972 144.891 8.85832 143.888 8.35691 143.052C8.35691 143.052 8.35691 143.052 8.35691 142.885C7.85549 141.882 7.35405 141.046 7.01977 140.044C5.68267 137.035 4.51269 133.86 3.50986 130.684C2.84131 128.344 2.1728 126.004 1.67138 123.664C1.33711 121.993 1.00283 120.321 0.835691 118.483C0.334276 114.806 0 111.129 0 107.285C0 105.112 -3.06089e-05 102.939 0.334246 100.766C0.501384 99.4291 0.668553 98.092 0.835691 96.7549C1.83852 88.8994 4.01129 81.5453 7.18692 74.6926C8.69116 71.3499 10.5297 68.0071 12.5354 64.9986C15.8781 59.8173 19.7223 54.9703 24.235 50.6248C38.4418 36.7523 57.9969 28.2282 79.3906 28.2282C80.2263 28.2282 81.062 28.2282 81.8977 28.2282C82.7334 28.2282 83.7362 28.2282 84.5719 28.3954C89.0846 28.7297 93.5973 29.3982 97.9429 30.401C100.45 31.0696 102.957 31.7381 105.297 32.5738C106.968 33.0752 108.473 33.7438 110.144 34.4123C111.314 34.9138 112.484 35.4152 113.654 35.9166C113.821 36.0837 113.988 36.0837 114.322 36.2509C122.011 39.9279 129.031 44.9421 135.048 50.959C135.883 51.7947 136.719 52.6304 137.555 53.6332C138.056 54.3018 138.725 54.8032 139.226 55.4717C140.229 56.4746 141.065 57.6445 141.9 58.6474C145.076 62.6587 147.75 67.0043 150.09 71.517C152.764 76.8654 154.937 82.5481 156.441 88.398C157.444 94.2478 158.28 100.599 158.28 107.285Z" fill="url(#paint2_radial_303_531)"/>
<path fill-rule="evenodd" clip-rule="evenodd" d="M113.821 36.084C113.487 36.084 113.32 36.084 112.985 36.2512C112.15 36.4183 111.314 36.2512 110.478 36.084C109.81 35.9169 109.475 35.5826 108.64 35.5826C107.637 35.4155 106.801 35.0812 105.798 34.9141C104.796 34.7469 103.96 34.4127 102.957 34.0784C102.121 33.7441 101.787 33.9112 101.119 34.0784C100.45 34.2455 99.9486 33.9112 99.28 33.7441C98.6115 33.4098 97.7758 33.4098 97.1072 33.2427C95.1016 32.9084 93.0959 32.2399 91.0903 31.7384C89.9203 31.4042 88.7503 31.4042 87.4132 31.4042C86.4104 31.4042 85.5747 31.7384 84.5719 31.7384C83.9033 31.7384 83.4019 31.5713 82.7334 31.5713C82.0648 31.4042 81.3962 31.5713 80.7277 31.5713C79.7249 31.4042 79.2235 31.237 78.2206 31.5713C77.3849 31.7384 76.8835 31.7384 76.0479 31.9056C75.2122 31.9056 74.2093 32.2399 73.3736 32.407C71.8694 32.7413 70.198 33.0755 68.6937 33.0755C67.6909 33.0755 66.3538 32.7413 65.5181 33.0755C65.0167 33.2427 64.6824 33.9112 64.181 34.2455C63.3453 35.0812 62.5097 35.7498 61.8411 36.5855C61.1726 37.4211 60.504 38.424 60.504 39.5939C60.504 40.5968 61.0054 41.7667 61.5068 42.6024C62.0082 43.6053 62.1753 44.4409 61.1725 45.1095C60.0025 45.9452 58.4983 46.6137 57.1612 47.1152C56.1584 47.4494 55.3227 47.6166 54.6541 46.948C54.3199 46.7809 54.1527 46.2795 53.8184 45.9452C53.4842 45.778 52.9828 45.9452 52.6485 46.1123C51.6457 46.4466 50.6428 46.7809 49.64 46.948C48.9714 47.1151 48.47 47.4494 47.8015 47.4494C47.1329 47.6166 46.6315 47.1152 45.7958 47.2823C44.793 47.4494 43.6231 47.9508 42.6202 47.9508C41.7845 47.9508 40.7817 47.6166 40.1132 47.2823C39.7789 47.1152 39.6117 46.7809 39.1103 46.948C38.776 46.948 38.2746 47.4494 38.1075 47.7837C37.7732 48.118 37.7732 48.6194 37.4389 48.9537C37.1047 49.4551 36.9375 49.7894 36.6032 50.2908C36.1018 51.1265 35.6004 51.9622 35.099 52.7978C34.7647 53.2993 34.4304 54.1349 33.929 54.6364C33.7619 54.9706 33.2605 55.1378 32.9262 55.3049C32.0905 55.8063 31.2548 56.4749 30.4191 56.9763C28.9149 58.1463 27.4107 59.4834 25.9064 60.6533C24.7364 61.489 23.0651 61.9904 21.728 62.659C20.8923 62.9933 20.0566 63.3275 19.2209 63.6618C18.8866 63.829 18.3852 63.829 18.218 64.1632C17.8838 64.4975 17.7166 64.8318 17.5495 65.3332C16.881 66.1689 16.0452 67.1717 15.5438 68.1746C15.2095 68.8431 15.0424 69.3445 14.7081 70.0131C14.3739 70.8488 13.8724 71.6845 13.7053 72.6873C13.0367 74.5258 13.0368 76.5315 12.2011 78.37C11.8668 79.3728 11.1982 80.3756 10.6968 81.3785C9.86114 83.0498 9.69398 85.0555 9.52684 86.894C9.3597 87.8969 9.52685 89.234 9.69399 90.2368C9.86113 91.4068 9.86114 92.5767 9.86114 93.7467C9.86114 94.9166 9.02546 96.2538 8.35691 97.0894C7.68835 97.9251 6.51838 98.2594 5.68269 99.0951C5.01413 99.7637 4.17843 100.432 3.84416 101.435C3.67702 101.769 3.84416 102.271 3.84416 102.772C3.67702 103.775 3.34276 104.611 3.34276 105.613C3.17562 106.783 3.17561 107.953 3.17561 109.291C3.17561 109.959 3.17561 110.461 3.17561 111.129C3.17561 111.798 3.34272 112.299 3.50986 112.8C3.50986 113.135 3.50986 113.636 3.50986 113.97C3.50986 114.472 3.84416 114.973 3.84416 115.308C4.17843 116.477 4.34556 117.48 4.5127 118.65C4.67984 119.653 5.18125 120.656 5.34839 121.659C5.8498 122.996 6.01695 124.333 6.35123 125.837C6.51837 126.84 6.51839 128.01 6.68553 129.013C6.85266 129.849 7.01977 130.684 7.01977 131.52C7.01977 132.857 6.68553 134.027 6.68553 135.364C6.68553 137.537 7.5212 139.71 8.02261 141.882C8.18975 142.551 8.35687 143.052 8.524 143.721C3.00845 133.024 0 120.823 0 107.953C0 92.2424 4.51272 77.7014 12.3682 65.5003C15.711 60.3191 19.5552 55.4721 24.0679 51.2936C38.2746 37.4211 57.8298 28.8971 79.2235 28.8971C80.8948 28.8971 82.7334 28.8971 84.4048 29.0642C94.7673 28.8971 104.796 31.5713 113.821 36.084Z" fill="url(#paint3_linear_303_531)"/>
<path opacity="0.1" fill-rule="evenodd" clip-rule="evenodd" d="M84.0718 144.389C84.0718 144.389 91.4258 155.253 101.287 164.112C111.148 172.97 112.485 178.987 112.485 178.987C112.485 178.987 131.038 171.299 144.241 152.914C157.445 134.695 84.0718 144.389 84.0718 144.389Z" fill="black"/>
<path opacity="0.4" fill-rule="evenodd" clip-rule="evenodd" d="M97.4437 30.2342C93.0981 29.2313 88.7525 28.5628 84.0726 28.2285C83.237 28.2285 82.2341 28.0614 81.3984 28.0614C83.2369 29.0642 85.0754 30.9027 85.4097 32.9084C86.0783 36.2511 87.2483 39.2596 87.7497 42.4353C88.4183 45.6109 88.2511 49.6222 86.7469 52.4635C85.9112 54.3021 84.7412 55.8063 83.237 57.3105C82.2341 58.3134 81.2313 58.9819 80.5627 60.319C79.8942 61.6561 79.0585 62.8261 78.2228 63.9961C77.0528 65.8346 75.7157 67.6731 74.2115 69.3445C73.7101 70.013 73.2087 70.3473 72.7073 71.0159C72.2059 71.8516 71.8715 72.6873 71.203 73.3558C69.6987 74.8601 67.526 75.8629 65.6874 76.5314C63.1804 77.5343 61.0076 78.5371 58.6676 79.8742C55.3249 81.7127 52.4835 83.8855 48.6393 84.0527C47.3022 84.0527 45.9651 83.8855 44.628 84.0527C42.9566 84.2198 41.4524 84.8883 39.9482 85.2226C38.6111 85.5569 37.1068 85.724 35.7697 86.0583C33.4298 86.3926 31.5912 87.2283 29.4185 87.7297C26.5771 88.3982 23.5686 88.2311 20.5602 88.7325C17.8859 89.0668 15.7131 89.4011 13.0389 88.7325C9.02762 87.7297 6.8548 85.8912 7.69049 81.5456C8.19191 78.7042 8.02481 76.5314 6.68771 74.5258C3.51208 81.3784 1.33925 88.8997 0.336426 96.588C2.17495 97.4237 4.34774 97.758 6.18626 97.9251C12.0361 98.5937 18.3873 95.9194 23.7358 93.9138C26.41 92.911 29.2513 91.4067 32.2598 91.0724C35.4354 90.7382 38.1096 91.0724 41.2853 90.4039C51.9821 87.7297 62.5118 84.0526 72.2058 78.3699C76.2171 76.03 77.8885 72.6873 80.7299 69.3445C83.0698 66.336 85.9111 63.9961 88.7525 61.489C91.5938 58.9819 94.1009 56.642 95.7723 53.2992C97.6108 49.7893 99.1151 45.778 99.9508 41.9338C100.786 37.5882 99.6165 33.5769 97.4437 30.2342ZM96.9423 40.931C96.7752 41.7667 96.608 42.7695 96.4409 43.6052C95.7723 45.778 94.4352 47.9508 92.4296 48.9536C91.5939 49.4551 90.2567 49.1208 89.7553 48.2851C89.4211 47.7837 89.4211 47.1151 89.4211 46.6137C89.2539 45.4437 89.0868 44.4409 89.0868 43.2709C89.0868 40.5967 89.0868 37.9225 88.7525 35.2483C89.0868 36.7526 88.7525 32.9084 91.0925 31.9055C92.2624 31.4041 93.9338 31.9055 94.7695 32.7412C95.7723 33.9112 96.1066 35.7497 96.4409 37.0868C96.7751 38.5911 97.1094 39.5939 96.9423 40.931Z" fill="url(#paint4_linear_303_531)"/>
<path opacity="0.4" fill-rule="evenodd" clip-rule="evenodd" d="M85.4073 167.454C85.2402 167.454 84.9059 167.622 84.7388 167.622L86.243 167.789C86.243 167.622 85.9088 167.454 85.4073 167.454ZM85.4073 167.454C85.2402 167.454 84.9059 167.622 84.7388 167.622L86.243 167.789C86.243 167.622 85.9088 167.454 85.4073 167.454ZM155.94 88.0638C155.94 90.0694 155.271 92.2422 155.271 94.2479C155.271 97.0892 154.77 99.262 154.101 101.936C153.6 103.775 152.597 105.112 152.095 106.95C151.427 108.956 150.424 110.795 149.421 112.633C147.416 116.31 145.243 120.154 144.407 124.333C143.571 128.177 143.404 131.353 141.566 134.862C139.727 138.205 137.053 141.047 135.047 144.389C134.212 145.894 133.543 145.894 132.039 146.896C130.535 148.066 129.03 149.738 127.526 150.908C124.351 153.415 121.342 155.253 117.331 156.758C114.824 157.76 112.484 158.429 109.81 158.763C108.138 159.097 106.467 158.763 104.795 159.097C102.121 159.599 99.6141 160.267 96.9399 161.103C92.7615 162.44 88.4159 163.276 84.2374 164.613C81.2289 165.449 78.3875 166.117 75.3791 166.619C73.5405 166.953 72.0363 167.956 70.1978 167.622C68.3593 167.287 66.5207 166.619 64.6822 165.95C62.3423 165.282 60.3366 165.114 57.8296 165.114C54.4868 165.114 50.4755 165.616 46.9656 164.947C43.1214 164.279 39.4444 163.109 35.6002 162.44C33.2603 161.939 31.5889 160.936 29.4161 160.1C27.4104 159.097 25.4048 158.93 23.232 158.262C21.0592 157.593 18.8864 156.59 16.7136 156.089C20.0564 160.435 23.9006 164.446 28.2461 167.956C39.4444 177.483 53.3168 183.834 68.6935 185.84C70.6992 186.007 72.7049 186.341 74.8777 186.341C79.3904 185.338 83.736 184.001 88.2487 182.664C95.7699 180.324 102.288 175.811 109.81 173.638C112.651 172.803 115.158 171.967 117.665 170.63C119.671 169.627 121.676 169.46 123.515 168.624C130.535 165.616 135.716 158.93 138.892 152.245C140.229 149.236 141.566 145.894 144.24 143.554C145.243 142.551 146.58 141.882 147.416 140.712C148.418 139.542 149.087 138.205 150.09 136.868C151.761 134.695 153.265 132.355 154.77 130.183C154.937 129.848 155.104 129.681 155.271 129.347C157.277 122.327 158.28 114.973 158.28 107.452C158.28 100.599 157.444 94.2479 155.94 88.0638ZM83.2346 167.956C83.5688 167.789 83.9031 167.454 84.2374 167.287C84.5717 167.12 85.0731 167.287 85.4073 167.454C86.0759 167.287 86.5773 167.287 87.0787 167.622C87.413 167.789 87.9144 168.123 88.0816 168.457C88.2487 168.792 88.0816 168.959 87.7473 169.293C87.413 169.627 87.2459 169.627 86.7445 169.627C85.9088 169.794 85.0731 169.961 84.0703 169.794C83.5688 169.794 82.7332 169.627 82.3989 169.293C82.3989 168.624 82.9003 168.29 83.2346 167.956ZM88.4159 178.318C87.9145 178.987 87.413 179.655 86.7445 179.99C86.0759 180.491 85.4074 180.658 84.906 181.16C83.2346 181.995 81.5632 182.998 79.8918 183.5C79.2233 183.667 78.3876 183.667 77.719 183.667C76.8833 183.834 75.8805 183.834 75.0448 183.834C74.042 183.834 72.872 184.001 71.8692 184.168C70.8664 184.168 69.6964 184.335 68.6935 184.335C66.855 184.502 65.3508 184.168 63.6794 183.5C62.1751 182.998 60.6709 182.163 59.3338 181.327C58.331 180.658 57.4953 179.823 56.8268 178.987C55.9911 178.318 55.4897 177.483 54.9882 176.48C54.8211 176.146 54.654 175.811 54.8211 175.31C54.8211 175.143 54.9882 174.976 54.9882 174.976C55.3225 174.808 55.6568 174.474 55.8239 174.474C56.3253 174.14 56.9939 174.14 57.6625 173.973C59.1667 173.806 60.6709 173.973 62.1752 174.14C63.0108 174.14 63.8465 174.307 64.6822 174.14C65.8522 173.973 67.0222 173.639 68.025 173.304C70.6992 172.636 73.3734 171.967 76.0477 171.8C78.7219 171.466 81.7303 171.131 84.4046 171.633C85.4074 171.8 86.7445 172.134 87.5802 172.636C88.2487 173.137 88.7501 173.806 89.0844 174.474C89.5858 175.811 89.2516 177.148 88.4159 178.318ZM109.475 171.466C108.974 171.967 108.305 172.301 107.637 172.803C106.801 173.471 105.965 173.806 105.13 174.307C104.461 174.808 103.625 175.143 102.957 175.477C102.121 175.811 101.453 176.146 100.617 176.647C99.7812 176.981 98.9455 177.316 98.1099 177.65C97.4413 177.817 96.7728 178.151 96.1042 177.984C95.6028 177.817 94.9342 177.65 94.5999 177.316C93.9314 176.647 94.0986 175.978 94.2657 175.644C94.2657 175.143 94.0986 174.307 94.2657 173.638C94.4328 173.304 94.7671 172.803 94.9342 172.469C95.6028 171.131 96.6056 170.296 97.6085 169.293C98.4442 168.457 99.447 167.789 100.617 167.287C101.954 166.786 103.625 166.619 104.963 166.452C106.467 166.284 109.141 166.117 109.977 167.956C110.478 169.126 110.311 170.296 109.475 171.466ZM86.4102 167.622C86.243 167.622 85.9088 167.454 85.5745 167.287C85.4074 167.287 85.0731 167.454 84.906 167.454L86.4102 167.622Z" fill="url(#paint5_linear_303_531)"/>
<path opacity="0.4" fill-rule="evenodd" clip-rule="evenodd" d="M149.589 71.1826V71.5169C149.422 73.6897 148.587 75.194 147.751 77.1996C147.082 78.871 146.414 80.2081 145.578 81.7124C144.241 84.2194 143.572 86.5594 142.57 89.4007C140.898 93.5792 140.23 98.0919 137.723 101.936C135.55 105.446 134.881 109.624 133.21 113.301C131.204 117.48 128.029 120.321 124.686 123.33C123.182 124.667 121.844 126.338 120.507 127.842C119.003 129.347 118 131.352 116.162 132.689C112.485 135.364 108.306 137.704 104.629 140.545C102.456 142.216 100.952 144.556 98.4451 145.893C96.1052 147.398 93.431 148.4 91.0911 149.738C88.9183 151.075 86.7455 152.412 84.4055 153.415C81.7313 154.417 79.5585 154.083 76.7172 154.25C73.7087 154.417 70.5331 155.253 67.6917 156.256C65.3518 157.092 63.3461 157.927 60.8391 157.092C59.1677 156.59 57.8305 155.42 56.1592 155.086C52.1478 154.25 47.8023 155.086 43.791 154.919C40.6153 154.752 37.2726 154.083 34.097 153.415C31.0885 152.913 28.5814 150.74 25.7401 149.905C22.063 148.902 17.8845 149.738 14.5418 148.4C13.0375 147.899 11.7004 146.729 10.5305 145.893C10.1962 145.726 10.0291 145.559 9.69478 145.392C9.19337 144.556 8.69197 143.553 8.19055 142.718C9.02624 143.052 9.86193 143.386 10.6976 143.888C15.2104 146.061 20.893 145.726 25.7401 146.562C31.2556 147.565 36.7712 148.902 42.2867 149.57C44.6266 149.905 46.7995 149.738 49.1394 149.57C52.315 149.236 55.4906 149.236 58.6662 148.735C64.0147 147.732 69.3631 145.225 74.8786 145.893C75.8815 146.061 77.0514 146.562 78.0543 146.562C79.5585 146.562 80.7285 145.225 81.8985 144.389C84.0713 143.052 86.4112 143.219 88.4168 141.381C90.2554 139.542 92.4281 138.372 94.7681 137.202C100.785 134.194 105.632 129.18 110.479 124.333C114.49 120.321 118.335 116.143 121.009 111.296C123.683 106.449 123.182 100.599 125.187 95.5848C126.691 91.9078 127.861 88.565 130.201 85.3894C131.371 83.8851 132.708 82.548 133.878 81.0438C135.215 79.5396 135.884 77.8682 136.887 76.0297C137.89 74.024 139.394 72.3526 140.23 70.1798C141.065 68.1742 140.898 66.5028 140.898 64.33C140.898 62.1572 140.898 59.8173 140.898 57.4773C144.408 62.3243 147.249 66.6699 149.589 71.1826Z" fill="url(#paint6_linear_303_531)"/>
<path opacity="0.4" fill-rule="evenodd" clip-rule="evenodd" d="M137.053 53.2992C136.218 52.4635 135.382 51.4607 134.546 50.625C128.529 44.608 121.509 39.761 113.821 35.9168C113.654 35.7497 113.487 35.7497 113.152 35.5825C111.983 35.0811 110.813 34.5797 109.643 34.0783C107.971 33.4097 106.467 32.7412 104.796 32.2398C105.297 32.5741 105.966 32.9083 106.133 32.9083C107.136 33.4097 107.971 33.744 108.64 34.5797C109.308 35.4154 109.643 36.084 109.643 37.2539C109.643 38.2567 109.81 39.4267 109.977 40.4295C110.144 41.4324 110.645 42.2681 110.813 43.2709C110.98 43.7723 110.98 44.2737 111.147 44.9423C111.481 46.2794 111.983 47.6165 112.317 48.9536C112.818 51.4607 111.481 53.4663 110.645 55.6391C109.308 59.149 108.473 62.6589 107.303 66.3359C106.467 69.1773 104.963 72.0187 102.79 74.1914C100.617 76.1971 97.4415 76.6985 95.603 78.8713C93.9316 80.877 91.9259 82.7155 89.586 83.7183C86.9118 85.0554 83.9033 86.0583 81.062 86.8939C79.0563 87.5625 76.8835 87.5625 74.7107 88.0639C72.0365 88.7325 69.6966 90.0696 67.3566 91.0724C64.6824 92.2424 62.3425 93.5795 59.6683 94.7494C56.9941 95.9194 54.6541 97.4236 51.9799 98.4265C50.6428 98.9279 49.3057 99.2622 48.1358 99.5964C45.4615 100.599 42.9545 102.271 40.1132 102.605C39.1103 102.772 38.1075 102.939 37.1046 102.939C36.2689 102.939 35.6004 103.106 34.9319 103.273C32.4248 104.276 30.9205 106.951 28.0792 107.118C25.405 107.118 22.8979 106.951 20.3908 107.285C19.0537 107.452 17.8838 107.285 16.7138 107.452C16.3795 107.452 15.8781 107.619 15.5438 107.452C15.2095 107.285 14.7082 106.951 14.2067 106.616C13.2039 106.115 12.3682 105.446 11.5325 104.778C9.86114 103.441 7.68835 104.276 5.84983 103.775C5.34842 103.608 4.51272 103.775 4.0113 103.441C2.84134 102.772 1.33707 101.268 0.334246 100.432C0.167108 102.605 0 104.778 0 106.951C0 110.795 0.334276 114.472 0.835691 118.149C1.00283 119.82 1.33711 121.492 1.67138 123.33C2.1728 125.67 2.84131 128.177 3.50986 130.35C4.51269 133.525 5.68267 136.701 7.01977 139.71C9.19257 140.044 11.3654 140.378 13.5381 140.044C16.7138 139.542 19.7223 139.041 22.8979 139.208C25.9064 139.375 28.5806 140.378 31.4219 140.88C34.5976 141.381 37.9403 141.882 41.2831 142.05C44.2916 142.217 47.3001 142.551 50.1414 142.885C52.3142 143.219 54.6542 143.554 56.827 143.721C62.6768 144.055 68.3595 142.551 74.0422 142.05C76.8835 141.715 79.7249 141.047 82.5662 140.378C84.2376 140.044 85.909 139.542 87.4132 138.54C89.4189 137.203 90.756 135.364 92.4274 133.86C94.433 132.188 96.4387 130.517 98.4443 129.013C100.116 127.676 101.787 126.171 103.626 125.001C104.963 124.166 106.467 123.163 107.804 122.16C110.311 120.154 112.484 117.814 114.657 115.307C117.665 111.798 118.835 106.951 120.005 102.605C121.175 98.5936 121.844 94.7494 124.016 91.0724C125.019 89.401 125.855 87.3954 126.356 85.3897C126.691 84.2197 126.858 82.7155 127.359 81.5455C128.195 79.707 130.033 78.2028 131.036 76.5314C131.872 75.1943 132.875 73.8572 133.376 72.1858C134.546 69.1773 135.382 66.1688 135.883 62.826C136.218 60.4861 137.053 58.1462 137.722 55.8063C137.889 55.472 137.889 54.9706 138.056 54.6363C138.056 54.4691 137.555 53.8006 137.053 53.2992ZM33.929 107.452C34.0962 107.118 37.1047 105.948 37.4389 105.781C37.4389 105.781 37.4389 105.781 37.2718 105.781L35.2661 106.616C37.4389 105.948 41.2831 108.12 39.4446 110.46C38.9431 111.129 37.4389 111.463 36.6032 111.63C35.7675 111.798 35.2661 111.463 34.7647 110.795C34.2633 110.126 33.929 109.123 33.929 108.288C33.929 108.12 33.929 107.619 33.929 107.452ZM10.3625 128.678C8.0226 128.01 6.51835 127.174 5.18124 125.169C4.17841 123.831 3.50989 122.661 3.17561 121.157C3.00848 119.82 2.50704 118.817 2.84132 117.48C3.00846 116.477 3.50989 115.307 4.0113 114.472C4.51272 113.469 5.34839 112.299 5.34839 111.965C7.68832 111.798 9.86112 111.63 12.0339 111.63C14.541 111.63 17.2152 111.965 19.7223 111.965C20.8922 111.965 22.0622 111.965 23.2322 111.798C24.4022 111.63 25.405 111.296 26.575 111.129C28.5806 110.795 30.4191 110.628 32.2576 111.463C33.5947 112.132 34.2633 113.803 34.9319 115.14C35.2661 115.976 35.6004 116.477 35.6004 117.48C35.6004 118.65 35.6004 119.653 35.4333 120.656C35.4333 120.99 35.2661 121.492 35.2661 121.826C33.5947 125.336 29.2492 126.506 25.9064 127.843C20.8923 129.848 15.3767 130.016 10.3625 128.678ZM45.963 136.367C44.9602 139.041 40.6145 139.877 38.1075 140.044C36.9375 140.044 35.4333 139.877 34.2633 139.208C33.5948 138.874 33.0933 138.205 32.5919 137.537C32.2577 137.035 31.7562 136.2 30.4191 136.534C30.7534 135.03 31.0877 133.693 31.7562 132.355C32.2577 131.687 32.9262 131.186 33.5947 130.517C34.7647 129.514 36.1018 128.511 37.4389 127.843C39.6117 126.673 41.9516 127.509 43.9573 128.511C45.4615 129.18 46.4644 130.183 46.7987 131.687C47.3001 133.525 46.6315 134.695 45.963 136.367ZM75.3792 135.865C74.5436 137.704 73.3736 138.205 71.7022 139.208C69.6966 140.211 67.0224 141.047 64.8496 141.047C63.6796 141.047 62.5096 140.545 61.5068 140.044C60.8383 139.71 60.0025 139.542 59.5011 139.041C57.9969 137.537 57.6626 135.531 58.6654 135.865C57.9969 134.528 57.6626 133.191 57.4955 131.854C57.8298 131.687 57.9969 131.353 57.9969 131.018C58.8326 129.514 60.3368 128.177 62.0082 127.341C64.6824 125.837 68.1923 125.503 71.2008 126.84C72.5379 127.341 73.3736 128.01 74.2093 129.013C74.7107 129.514 75.2121 129.848 75.7135 130.517C76.215 131.854 75.8807 134.361 75.3792 135.865ZM84.2376 135.531C83.7362 135.865 82.9005 136.534 82.3991 136.534C81.8977 136.367 81.062 135.531 81.062 134.863L80.7277 134.528C81.3962 133.358 82.0648 132.356 82.7334 131.186C83.7362 131.687 84.739 131.52 85.4075 132.69C86.2432 133.86 85.0733 134.863 84.2376 135.531ZM106.801 82.8826C105.966 84.0526 104.796 85.2226 103.458 85.724C101.787 86.3925 99.4472 87.0611 99.28 84.3869C99.28 82.8826 99.4472 81.7127 100.116 80.3756C101.119 78.3699 101.954 77.8685 103.96 76.8657C104.628 76.8657 105.464 77.1999 105.966 77.3671C106.968 77.7014 107.971 78.7042 108.138 79.8741C108.305 81.0441 107.47 82.0469 106.801 82.8826ZM127.694 71.6844C126.858 74.3586 125.688 76.8657 124.518 79.2056C123.181 82.2141 123.014 85.3897 122.178 88.5653C121.844 90.4038 120.841 92.4095 119.169 93.078C118.334 93.4123 117.665 93.2452 116.83 93.2452C115.994 93.2452 114.657 93.5795 114.657 94.248C114.155 92.9109 113.487 91.2395 113.152 89.9024C112.818 88.3982 112.651 86.7268 112.484 85.0554C112.15 83.384 112.15 81.7127 111.983 80.0413C111.815 78.537 111.481 76.8657 111.481 75.3614C111.481 70.1801 114.49 63.6617 119.337 61.3218C120.841 60.6533 122.345 60.319 124.016 60.4861C125.855 60.8204 127.025 61.3218 127.861 63.1603C128.863 65.6674 128.362 69.0102 127.694 71.6844Z" fill="url(#paint7_linear_303_531)"/>
<path opacity="0.4" fill-rule="evenodd" clip-rule="evenodd" d="M104.913 78.555C104.745 78.7221 104.411 78.7221 104.244 78.8892C103.743 78.8892 103.408 78.7221 103.074 78.8892L104.913 78.555Z" fill="url(#paint8_linear_303_531)"/>
<path fill-rule="evenodd" clip-rule="evenodd" d="M82.0163 116.997C78.6735 115.325 82.5177 100.45 85.8604 97.1072C89.2032 93.7644 98.0615 101.453 99.0643 107.637C100.234 113.988 89.8718 120.674 82.0163 116.997Z" fill="url(#paint9_linear_303_531)"/>
<path opacity="0.4" fill-rule="evenodd" clip-rule="evenodd" d="M5.18178 111.965C5.01464 111.965 4.84753 111.965 4.84753 111.965C5.18181 111.797 5.18178 111.797 5.18178 111.965Z" fill="url(#paint10_linear_303_531)"/>
<path fill-rule="evenodd" clip-rule="evenodd" d="M94.2664 29.5654L108.139 24.0498C108.139 24.0498 130.201 32.5739 144.241 51.4605L145.076 63.4944C145.076 63.4944 118.669 53.299 94.2664 29.5654Z" fill="url(#paint11_linear_303_531)"/>
<path fill-rule="evenodd" clip-rule="evenodd" d="M144.743 151.743C144.743 151.743 133.043 164.446 124.352 167.12L117.165 169.293C117.165 169.293 84.2388 157.426 82.4003 136.868C80.8961 119.486 110.48 92.9107 118.502 89.7351C126.525 86.5595 135.885 88.398 135.885 88.398L144.743 151.743Z" fill="url(#paint12_linear_303_531)"/>
<path fill-rule="evenodd" clip-rule="evenodd" d="M135.885 88.398C128.865 86.2252 98.9472 100.098 90.7574 131.018C89.0861 137.369 104.296 161.27 122.514 167.12C128.531 169.126 156.276 144.891 157.446 128.511C158.616 112.132 146.247 91.7407 135.885 88.398Z" fill="url(#paint13_linear_303_531)"/>
<path fill-rule="evenodd" clip-rule="evenodd" d="M92.7624 134.695C97.108 99.5964 129.031 88.0639 136.051 90.2367C141.065 91.9081 148.419 99.2621 152.765 106.449C148.419 97.4236 141.901 90.0696 136.051 88.231C129.031 86.0583 99.1137 99.9307 90.9239 130.851C90.4225 133.024 91.7596 137.37 94.7681 142.384C92.9296 139.208 92.4282 136.367 92.7624 134.695Z" fill="url(#paint14_linear_303_531)"/>
<path opacity="0.3" fill-rule="evenodd" clip-rule="evenodd" d="M33.9306 172.469C33.9306 172.469 41.1176 175.143 46.2988 173.639C46.2988 173.639 48.3045 156.758 41.9532 145.894C35.602 135.03 24.738 151.409 24.738 151.409L22.231 161.772C22.231 161.772 28.2479 168.959 33.9306 172.469Z" fill="black"/>
<path fill-rule="evenodd" clip-rule="evenodd" d="M40.1142 169.795L44.6269 168.625C44.6269 168.625 46.7997 159.265 42.9556 148.568C38.61 136.534 22.5647 127.509 20.2248 127.341C17.8848 127.174 15.5449 132.523 15.5449 132.523L40.1142 169.795Z" fill="url(#paint15_linear_303_531)"/>
<path fill-rule="evenodd" clip-rule="evenodd" d="M112.484 178.987L104.796 188.848C104.796 188.848 91.5918 195.199 78.2207 192.191L68.5267 185.673L112.484 178.987Z" fill="url(#paint16_linear_303_531)"/>
<path fill-rule="evenodd" clip-rule="evenodd" d="M12.2027 139.876C13.0384 136.199 16.2141 130.182 19.0554 129.514C21.8968 128.845 35.6021 141.882 38.7777 150.239C41.9533 158.596 40.282 167.788 40.1148 169.627C39.9477 171.466 24.571 166.284 16.7155 159.933C9.02713 153.582 12.2027 139.876 12.2027 139.876Z" fill="url(#paint17_linear_303_531)"/>
<path fill-rule="evenodd" clip-rule="evenodd" d="M38.777 150.239C35.6013 141.882 22.0632 129.013 19.0547 129.514C17.8847 129.681 16.7147 130.851 15.7119 132.188C16.3805 131.52 17.049 131.185 17.7175 131.018C20.5589 130.35 34.4314 140.712 37.607 149.069C41.4512 159.265 39.2784 166.619 38.9441 169.961C39.6127 169.961 40.1141 169.961 40.1141 169.627C40.2812 167.789 41.9526 158.596 38.777 150.239Z" fill="url(#paint18_linear_303_531)"/>
<path fill-rule="evenodd" clip-rule="evenodd" d="M85.0748 113.803C82.4006 112.466 85.4091 100.098 88.0833 97.2564C90.7575 94.5822 97.7773 100.933 98.7801 106.115C99.7829 111.296 91.4261 116.812 85.0748 113.803Z" fill="url(#paint19_linear_303_531)"/>
<path fill-rule="evenodd" clip-rule="evenodd" d="M108.139 24.0498C108.139 24.0498 108.807 32.4067 118.334 42.7693C127.861 53.1319 144.241 51.4605 144.241 51.4605L145.076 63.4944C145.076 63.4944 110.312 48.1177 94.2664 29.5654L108.139 24.0498Z" fill="url(#paint20_linear_303_531)"/>
<path fill-rule="evenodd" clip-rule="evenodd" d="M135.384 98.7609C135.05 99.0951 134.047 99.7637 134.883 100.265C135.05 100.432 135.217 100.265 135.384 100.432C135.552 100.432 135.551 100.599 135.719 100.599C136.22 100.265 136.053 98.5937 135.384 98.7609Z" fill="#0EDBFF"/>
<path fill-rule="evenodd" clip-rule="evenodd" d="M168.143 84.7213C167.809 85.0555 166.806 85.7241 167.642 86.2255C167.809 86.3926 167.976 86.2255 168.143 86.3926C168.31 86.3926 168.31 86.5598 168.477 86.5598C169.146 86.0584 168.812 84.5541 168.143 84.7213Z" fill="#0EDBFF"/>
<path fill-rule="evenodd" clip-rule="evenodd" d="M153.769 142.885C153.435 143.22 152.432 143.888 153.268 144.389C153.435 144.557 153.602 144.389 153.769 144.557C153.937 144.557 153.937 144.724 154.104 144.724C154.772 144.389 154.438 142.718 153.769 142.885Z" fill="#0EDBFF"/>
<path fill-rule="evenodd" clip-rule="evenodd" d="M138.226 104.611C138.56 104.443 138.727 104.443 139.061 104.443C139.061 104.778 139.396 105.446 138.894 105.781C138.56 105.948 138.56 105.279 138.393 105.112L138.226 104.611Z" fill="#0EDBFF"/>
<path fill-rule="evenodd" clip-rule="evenodd" d="M86.2456 108.121C86.747 108.288 87.2485 108.622 87.7499 108.789C87.917 108.622 88.0842 108.622 88.4184 108.622C88.7527 108.455 88.9198 108.121 88.9198 107.786C89.087 107.285 88.9199 106.951 88.5856 106.616C88.4185 106.449 88.2513 106.115 88.0842 105.948C87.917 105.781 87.4156 105.781 87.0813 105.948C86.747 106.115 86.5799 106.449 86.4128 106.783C86.2456 107.118 85.9114 107.452 85.9114 107.786C85.9114 108.121 86.2456 108.455 86.4128 108.789L86.2456 108.121Z" fill="#0EDBFF"/>
<path fill-rule="evenodd" clip-rule="evenodd" d="M12.3706 147.565C12.872 147.732 13.3734 148.067 13.8748 148.234C14.0419 148.067 14.2091 148.067 14.5433 148.067C14.8776 147.899 15.0448 147.565 15.0448 147.231C15.2119 146.729 15.0448 146.395 14.7105 146.061C14.5433 145.894 14.3762 145.559 14.2091 145.392C14.0419 145.225 13.5405 145.225 13.2062 145.392C12.872 145.559 12.7048 145.894 12.5377 146.228C12.3706 146.562 12.0363 146.897 12.0363 147.231C12.0363 147.565 12.3706 147.899 12.5377 148.234L12.3706 147.565Z" fill="#0EDBFF"/>
<path fill-rule="evenodd" clip-rule="evenodd" d="M156.277 168.123C156.778 168.29 157.279 168.625 157.781 168.792C157.948 168.625 158.115 168.625 158.449 168.625C158.784 168.457 158.951 168.123 158.951 167.789C159.118 167.288 158.951 166.953 158.617 166.619C158.449 166.452 158.282 166.118 158.115 165.95C157.948 165.783 157.447 165.783 157.112 165.95C156.778 166.118 156.611 166.452 156.444 166.786C156.277 167.12 155.942 167.455 155.942 167.789C155.942 168.123 156.277 168.457 156.444 168.792L156.277 168.123Z" fill="#0EDBFF"/>
<path fill-rule="evenodd" clip-rule="evenodd" d="M145.914 153.749C146.416 153.916 146.917 154.251 147.418 154.418C147.586 154.251 147.753 154.251 148.087 154.251C148.421 154.084 148.588 153.749 148.588 153.415C148.755 152.914 148.588 152.579 148.254 152.245C148.087 152.078 147.92 151.744 147.753 151.576C147.586 151.409 147.084 151.409 146.75 151.576C146.416 151.744 146.248 152.078 146.081 152.412C145.914 152.746 145.58 153.081 145.58 153.415C145.58 153.749 145.914 154.084 146.081 154.418L145.914 153.749Z" fill="#0EDBFF"/>
<path fill-rule="evenodd" clip-rule="evenodd" d="M2.34235 54.1349C3.67946 54.6363 5.01655 55.1377 6.35366 55.8063C6.85507 55.472 7.35648 55.472 7.85789 55.1377C8.52644 54.6363 9.02785 53.8006 9.36212 53.1321C9.6964 51.9621 9.195 51.1264 8.69358 50.2907C8.35931 49.7893 8.02506 48.9536 7.52365 48.4522C6.85509 47.9508 5.68513 48.1179 5.01657 48.4522C4.18088 48.7865 3.67946 49.6222 3.17804 50.2907C2.67663 50.9593 2.17519 52.1292 2.00806 52.9649C2.00806 53.8006 2.67664 54.8034 3.34519 55.3049L2.34235 54.1349Z" fill="#0EDBFF"/>
<path fill-rule="evenodd" clip-rule="evenodd" d="M89.5884 5.99915C90.9255 6.50056 92.2626 7.00198 93.5998 7.67053C94.1012 7.33626 94.6026 7.33626 95.104 7.00198C95.7725 6.50057 96.2739 5.66488 96.6082 4.99632C96.9425 3.82636 96.4411 2.99067 95.9397 2.15497C95.6054 1.65356 95.2711 0.817872 94.7697 0.316458C94.1011 -0.184957 92.9312 -0.0178184 92.2626 0.316458C91.4269 0.650734 90.9255 1.48642 90.4241 2.15497C89.9227 2.82353 89.4213 3.9935 89.2542 4.82919C89.2542 5.66488 89.9227 6.6677 90.5912 7.16912L89.5884 5.99915Z" fill="#0EDBFF"/>
<path fill-rule="evenodd" clip-rule="evenodd" d="M101.121 121.157C100.954 121.324 100.787 121.492 100.619 121.826C100.787 122.16 100.954 122.327 101.288 122.494C101.455 122.494 101.622 122.494 101.789 122.494C101.957 122.327 101.789 122.16 101.957 121.993C102.124 121.659 102.124 121.492 101.957 121.157C101.789 120.99 101.789 120.823 101.622 120.823C101.455 120.823 101.121 120.823 101.121 120.99V121.157Z" fill="#0EDBFF"/>
<path fill-rule="evenodd" clip-rule="evenodd" d="M102.291 129.514C102.291 129.681 101.789 130.684 102.291 130.35C102.625 130.183 102.625 129.681 102.291 129.514C102.458 129.514 102.458 129.514 102.291 129.514Z" fill="#0EDBFF"/>
<path fill-rule="evenodd" clip-rule="evenodd" d="M128.532 144.557C128.197 145.058 128.197 145.225 128.03 145.727C128.197 145.894 128.532 145.894 128.699 145.894C129.033 145.894 129.033 145.727 129.033 145.559C129.033 145.392 129.2 145.058 129.033 144.891C128.866 144.557 128.699 144.389 128.532 144.557Z" fill="#0EDBFF"/>
<path fill-rule="evenodd" clip-rule="evenodd" d="M106.469 122.16C106.636 122.327 106.803 122.494 106.803 122.829C106.469 122.829 106.469 122.662 106.469 122.327C106.469 121.993 106.636 122.16 106.803 121.826C106.803 121.826 106.803 121.826 106.97 121.826L106.469 122.16Z" fill="#0EDBFF"/>
<path fill-rule="evenodd" clip-rule="evenodd" d="M131.54 99.7637C131.373 99.9308 131.206 100.098 131.039 100.265C131.206 100.432 131.039 100.767 131.373 100.767C131.54 100.767 131.707 100.599 131.875 100.265C132.042 100.098 132.042 99.9308 132.042 99.5966C132.042 99.4294 132.042 98.928 131.875 99.2623L131.54 99.7637Z" fill="#0EDBFF"/>
<path fill-rule="evenodd" clip-rule="evenodd" d="M128.03 41.4325C128.364 41.4325 128.532 41.2654 128.866 41.2654C128.866 41.2654 129.033 41.2654 129.2 41.2654C129.534 41.2654 129.534 41.2653 129.534 41.4325C129.702 41.5996 129.702 41.9339 129.702 42.101C129.534 43.1039 128.197 41.5996 128.699 41.2654L128.03 41.4325Z" fill="#0EDBFF"/>
<path fill-rule="evenodd" clip-rule="evenodd" d="M21.7302 43.2709C21.2288 43.4381 20.5602 43.4381 20.5602 43.9395C20.5602 44.4409 21.2287 44.7752 21.563 44.9423C22.2316 45.1095 23.2344 45.2766 23.5686 44.4409C23.7358 43.9395 23.5687 43.1038 23.4015 42.7695C22.9001 41.9338 21.7302 42.2681 20.8945 42.6024L21.7302 43.2709Z" fill="#0EDBFF"/>
<path fill-rule="evenodd" clip-rule="evenodd" d="M134.549 145.559C134.382 144.055 134.047 142.551 135.384 141.715C136.053 141.214 137.39 141.214 138.226 141.715C138.727 142.05 139.229 142.718 139.396 143.22C139.897 144.055 139.73 144.055 139.563 144.724C139.061 146.395 138.56 147.398 137.056 147.398C134.883 147.398 134.549 145.727 134.549 143.721V145.559Z" fill="#0EDBFF"/>
<path fill-rule="evenodd" clip-rule="evenodd" d="M135.551 102.939C136.22 102.772 136.721 102.438 137.056 101.936C136.554 101.602 135.718 101.101 135.551 101.936V102.939Z" fill="#0EDBFF"/>
<path fill-rule="evenodd" clip-rule="evenodd" d="M15.7134 141.548C16.3819 141.381 16.8833 141.047 17.2176 140.545C16.7162 140.211 15.8805 139.71 15.7134 140.545V141.548Z" fill="#0EDBFF"/>
<path fill-rule="evenodd" clip-rule="evenodd" d="M15.7134 154.251C16.3819 154.084 16.8833 153.749 17.2176 153.248C16.7162 152.914 15.8805 152.412 15.7134 153.248V154.251Z" fill="#0EDBFF"/>
<path fill-rule="evenodd" clip-rule="evenodd" d="M105.299 108.789C105.968 108.121 106.803 106.783 107.806 107.452C108.475 107.953 108.642 108.956 107.973 109.458C107.472 109.792 106.97 109.959 106.302 110.126C105.801 110.293 105.132 109.959 105.299 109.291V108.789Z" fill="#0EDBFF"/>
<path fill-rule="evenodd" clip-rule="evenodd" d="M125.189 141.548C125.857 140.88 126.693 139.542 127.696 140.211C128.365 140.712 128.532 141.715 127.863 142.217C127.362 142.551 126.86 142.718 126.192 142.885C125.69 143.052 125.022 142.718 125.189 142.05V141.548Z" fill="#0EDBFF"/>
<path fill-rule="evenodd" clip-rule="evenodd" d="M122.18 32.9084C123.016 33.0756 124.687 33.0756 124.52 34.4127C124.52 35.0812 123.517 35.9169 122.849 35.5827C122.18 35.2484 121.846 34.9141 121.345 34.4127C121.01 34.0784 120.843 33.2427 121.679 33.0756L122.18 32.9084Z" fill="#0EDBFF"/>
<path fill-rule="evenodd" clip-rule="evenodd" d="M118.838 150.072C119.506 149.404 120.342 148.067 121.345 148.735C122.013 149.236 122.18 150.239 121.512 150.741C121.01 151.075 120.509 151.242 119.84 151.409C119.339 151.576 118.67 151.242 118.838 150.574V150.072Z" fill="#0EDBFF"/>
<path fill-rule="evenodd" clip-rule="evenodd" d="M91.7612 107.619C91.0927 108.121 89.7555 108.622 89.5884 109.792C89.5884 110.46 89.7555 110.795 90.4241 111.129C90.9255 111.296 91.594 111.296 92.0955 111.129C92.764 110.795 93.5997 110.126 93.934 109.458C94.1011 108.956 94.1011 108.622 93.934 108.121C93.7668 107.786 93.5997 107.452 93.2654 107.452C92.2626 107.118 91.7612 108.121 91.0927 108.455L91.7612 107.619Z" fill="#0EDBFF"/>
<path fill-rule="evenodd" clip-rule="evenodd" d="M94.2682 104.945C94.6025 105.112 95.1039 105.279 95.2711 105.613C94.9368 105.781 94.4354 106.115 93.9339 105.948C93.4325 105.781 93.2654 105.279 93.4326 104.778C93.4326 104.444 93.934 103.942 94.2682 104.109C94.4354 104.109 94.4354 104.444 94.4354 104.444C94.6025 104.778 94.6025 104.611 94.4354 104.945H94.2682Z" fill="#0EDBFF"/>
<path fill-rule="evenodd" clip-rule="evenodd" d="M114.993 100.432C112.988 102.104 111.149 104.276 110.146 106.784C109.645 108.121 110.481 108.121 111.651 107.954C113.824 107.452 116.163 106.951 118.336 106.282C119.673 105.948 121.512 105.279 122.348 104.109C123.016 103.274 123.35 101.769 123.183 100.767C123.016 99.2623 121.846 98.7609 120.509 98.2595C117.333 97.4238 112.988 100.767 111.818 103.608L114.993 100.432Z" fill="#0EDBFF"/>
<path fill-rule="evenodd" clip-rule="evenodd" d="M103.962 111.798C104.631 111.798 105.132 111.965 105.801 112.299C105.634 112.466 105.634 112.8 105.634 112.967C105.467 113.302 105.132 113.636 104.965 113.803C104.464 114.137 103.628 114.305 103.127 113.97C101.455 113.302 103.962 111.296 104.631 112.132L103.962 111.798Z" fill="#0EDBFF"/>
<path fill-rule="evenodd" clip-rule="evenodd" d="M11.0334 175.143C10.8662 175.31 10.6991 175.477 10.532 175.811C10.6991 176.146 10.8662 176.313 11.2005 176.48C11.3677 176.48 11.5348 176.48 11.702 176.48C11.8691 176.313 11.7019 176.146 11.8691 175.979C12.0362 175.644 12.0362 175.477 11.8691 175.143C11.7019 174.976 11.702 174.809 11.5348 174.809C11.3677 174.809 11.0334 174.809 11.0334 174.976V175.143Z" fill="#0EDBFF"/>
<path fill-rule="evenodd" clip-rule="evenodd" d="M12.3704 183.5C12.3704 183.667 11.869 184.67 12.3704 184.335C12.7047 184.168 12.5376 183.667 12.3704 183.5C12.3704 183.667 12.3704 183.5 12.3704 183.5Z" fill="#0EDBFF"/>
<path fill-rule="evenodd" clip-rule="evenodd" d="M16.3821 176.146C16.5492 176.313 16.7164 176.48 16.7164 176.814C16.3821 176.814 16.3821 176.647 16.3821 176.313C16.3821 175.979 16.5492 176.146 16.7164 175.811C16.7164 175.811 16.7163 175.811 16.8835 175.811L16.3821 176.146Z" fill="#0EDBFF"/>
<path fill-rule="evenodd" clip-rule="evenodd" d="M13.875 165.783C14.5436 165.783 15.045 165.95 15.7135 166.285C15.5464 166.452 15.5464 166.786 15.5464 166.953C15.3792 167.288 15.045 167.622 14.8778 167.789C14.3764 168.123 13.5407 168.29 13.0393 167.956C11.3679 167.288 13.875 165.282 14.5435 166.118L13.875 165.783Z" fill="#0EDBFF"/>
<path fill-rule="evenodd" clip-rule="evenodd" d="M118.837 34.4127C119.339 34.7469 120.007 35.0812 120.509 35.5826C121.01 36.2512 121.512 36.7526 121.846 37.4211C122.013 37.7554 122.514 38.5911 121.846 38.5911C121.177 38.7582 119.84 37.7554 119.172 37.254C118.169 36.5855 117.333 36.084 116.665 35.0812C116.33 34.5798 115.829 33.7441 116.163 33.2427C116.497 32.7413 116.832 32.7413 117.333 32.7413C117.835 32.7413 118.169 32.9084 118.67 33.2427C118.837 33.4098 119.84 34.4127 119.506 34.5798L118.837 34.4127Z" fill="#0EDBFF"/>
<path fill-rule="evenodd" clip-rule="evenodd" d="M126.191 97.5908C125.857 97.758 123.851 98.9279 124.854 99.4293C125.356 99.7636 126.526 99.5965 127.027 99.4293C127.528 99.2622 128.03 98.9279 127.696 98.4265C127.027 97.2565 125.523 97.9251 124.687 98.4265L126.191 97.5908Z" fill="#0EDBFF"/>
<path fill-rule="evenodd" clip-rule="evenodd" d="M141.234 28.8971C140.566 29.3985 135.217 32.2399 137.724 33.577C139.061 34.2455 141.735 34.0784 143.073 33.4098C144.243 32.9084 145.58 32.0727 144.744 30.7356C143.24 27.8943 139.396 29.5657 137.39 30.7356L141.234 28.8971Z" fill="#0EDBFF"/>
<path fill-rule="evenodd" clip-rule="evenodd" d="M16.5487 148.401C16.7158 149.571 17.0501 150.908 18.0529 151.744C19.2229 152.579 20.3929 152.245 21.5628 151.576C22.3985 151.075 23.0671 150.574 23.9028 150.072C24.4042 149.738 24.7385 149.738 24.7385 149.069C24.7385 148.401 24.0699 147.398 23.7356 146.896C23.2342 146.228 22.2314 145.559 21.5628 145.225C19.8915 144.557 16.7159 145.225 16.7159 147.398L16.5487 148.401Z" fill="#0EDBFF"/>
<path fill-rule="evenodd" clip-rule="evenodd" d="M127.195 150.908C127.362 151.744 127.529 152.746 128.197 153.248C129.033 153.916 129.869 153.582 130.704 153.081C131.206 152.746 131.874 152.412 132.376 152.078C132.71 151.911 133.044 151.911 133.044 151.409C133.044 150.908 132.543 150.239 132.376 149.905C132.042 149.404 131.373 148.902 130.872 148.735C129.702 148.234 127.529 148.735 127.529 150.239L127.195 150.908Z" fill="#0EDBFF"/>
<path fill-rule="evenodd" clip-rule="evenodd" d="M108.307 25.3869C108.307 25.3869 111.984 40.7636 122.179 46.6135C135.049 53.9676 144.074 51.4605 144.074 51.4605C144.074 51.4605 132.542 51.1262 121.845 43.7721C112.987 37.588 108.307 25.3869 108.307 25.3869Z" fill="url(#paint21_linear_303_531)"/>
<path opacity="0.2" fill-rule="evenodd" clip-rule="evenodd" d="M84.0718 144.389L90.9244 134.361C90.9244 134.361 99.7828 159.432 122.514 167.287L117.499 170.463C117.667 170.463 94.2672 163.777 84.0718 144.389Z" fill="black"/>
<path opacity="0.3" fill-rule="evenodd" clip-rule="evenodd" d="M97.1082 32.9082C97.1082 32.9082 130.034 66.0016 153.768 80.7097C153.768 80.7097 151.428 71.6843 145.077 63.3274C145.077 63.4945 125.187 56.9761 97.1082 32.9082Z" fill="black"/>
<defs>
<linearGradient id="paint0_linear_303_531" x1="26.4367" y1="64.7426" x2="26.4367" y2="37.3199" gradientUnits="userSpaceOnUse">
<stop stop-color="#9A00B3"/>
<stop offset="1" stop-color="#7F72FF"/>
</linearGradient>
<linearGradient id="paint1_linear_303_531" x1="20.3679" y1="66.1317" x2="30.672" y2="34.6744" gradientUnits="userSpaceOnUse">
<stop stop-color="#5B008B"/>
<stop offset="1" stop-color="#8E00FF"/>
</linearGradient>
<radialGradient id="paint2_radial_303_531" cx="0" cy="0" r="1" gradientUnits="userSpaceOnUse" gradientTransform="translate(29.9969 70.1899) scale(127.195 127.195)">
<stop offset="0.00558659" stop-color="#60DBFF"/>
<stop offset="0.0937306" stop-color="#60D5FF"/>
<stop offset="0.211" stop-color="#5FC4FF"/>
<stop offset="0.3446" stop-color="#5DA9FF"/>
<stop offset="0.4903" stop-color="#5A82FF"/>
<stop offset="0.6442" stop-color="#5751FF"/>
<stop offset="0.6844" stop-color="#5643FF"/>
<stop offset="0.7432" stop-color="#563DF8"/>
<stop offset="0.8282" stop-color="#552EE5"/>
<stop offset="0.9287" stop-color="#5315C6"/>
<stop offset="1" stop-color="#5200AB"/>
</radialGradient>
<linearGradient id="paint3_linear_303_531" x1="-0.147416" y1="85.5031" x2="113.757" y2="85.5031" gradientUnits="userSpaceOnUse">
<stop offset="0.0111732" stop-color="#81E0FF"/>
<stop offset="0.3224" stop-color="#82DDFF"/>
<stop offset="0.5506" stop-color="#86D4FF"/>
<stop offset="0.7523" stop-color="#8BC4FF"/>
<stop offset="0.9375" stop-color="#94ADFF"/>
<stop offset="1" stop-color="#97A4FF"/>
</linearGradient>
<linearGradient id="paint4_linear_303_531" x1="0.576938" y1="63.0903" x2="100.159" y2="63.0903" gradientUnits="userSpaceOnUse">
<stop stop-color="#B8C2FF"/>
<stop offset="1" stop-color="#7D72B3"/>
</linearGradient>
<linearGradient id="paint5_linear_303_531" x1="16.7369" y1="137.214" x2="158.219" y2="137.214" gradientUnits="userSpaceOnUse">
<stop stop-color="#B8C2FF"/>
<stop offset="1" stop-color="#7D72B3"/>
</linearGradient>
<linearGradient id="paint6_linear_303_531" x1="8.38092" y1="107.949" x2="149.579" y2="107.949" gradientUnits="userSpaceOnUse">
<stop stop-color="#B8C2FF"/>
<stop offset="1" stop-color="#7D72B3"/>
</linearGradient>
<linearGradient id="paint7_linear_303_531" x1="-0.143906" y1="88.2173" x2="138.648" y2="88.2173" gradientUnits="userSpaceOnUse">
<stop stop-color="#B8C2FF"/>
<stop offset="1" stop-color="#7D72B3"/>
</linearGradient>
<linearGradient id="paint8_linear_303_531" x1="102.964" y1="78.8005" x2="104.869" y2="78.8005" gradientUnits="userSpaceOnUse">
<stop stop-color="#E8DDFF"/>
<stop offset="1" stop-color="#AA8AD8"/>
</linearGradient>
<linearGradient id="paint9_linear_303_531" x1="86.9009" y1="118.682" x2="93.6753" y2="98.0002" gradientUnits="userSpaceOnUse">
<stop stop-color="#5B008B"/>
<stop offset="1" stop-color="#8E00FF"/>
</linearGradient>
<linearGradient id="paint10_linear_303_531" x1="4.82063" y1="111.982" x2="5.21621" y2="111.982" gradientUnits="userSpaceOnUse">
<stop stop-color="#E8DDFF"/>
<stop offset="1" stop-color="#AA8AD8"/>
</linearGradient>
<linearGradient id="paint11_linear_303_531" x1="94.2162" y1="43.7422" x2="145.036" y2="43.7422" gradientUnits="userSpaceOnUse">
<stop stop-color="#7F72FF"/>
<stop offset="1" stop-color="#9A00B3"/>
</linearGradient>
<linearGradient id="paint12_linear_303_531" x1="105.76" y1="165.736" x2="131.539" y2="87.0376" gradientUnits="userSpaceOnUse">
<stop stop-color="#280077"/>
<stop offset="1" stop-color="#812CFF"/>
</linearGradient>
<linearGradient id="paint13_linear_303_531" x1="113.14" y1="164.135" x2="137.731" y2="89.0655" gradientUnits="userSpaceOnUse">
<stop stop-color="#7A00B3"/>
<stop offset="1" stop-color="#B136FF"/>
</linearGradient>
<linearGradient id="paint14_linear_303_531" x1="121.611" y1="142.6" x2="121.611" y2="88.2237" gradientUnits="userSpaceOnUse">
<stop stop-color="#8E00B3"/>
<stop offset="1" stop-color="#E05CFF"/>
</linearGradient>
<linearGradient id="paint15_linear_303_531" x1="25.4564" y1="164.905" x2="36.1048" y2="132.397" gradientUnits="userSpaceOnUse">
<stop stop-color="#280077"/>
<stop offset="1" stop-color="#812CFF"/>
</linearGradient>
<linearGradient id="paint16_linear_303_531" x1="90.5649" y1="193.087" x2="90.5649" y2="179.004" gradientUnits="userSpaceOnUse">
<stop stop-color="#7A00B3"/>
<stop offset="0.9162" stop-color="#7006FC"/>
<stop offset="1" stop-color="#7006F9"/>
</linearGradient>
<linearGradient id="paint17_linear_303_531" x1="26.0958" y1="170.1" x2="26.0958" y2="129.623" gradientUnits="userSpaceOnUse">
<stop stop-color="#7A00B3"/>
<stop offset="1" stop-color="#B136FF"/>
</linearGradient>
<linearGradient id="paint18_linear_303_531" x1="28.2165" y1="170.084" x2="28.2165" y2="129.623" gradientUnits="userSpaceOnUse">
<stop stop-color="#8E00B3"/>
<stop offset="1" stop-color="#E05CFF"/>
</linearGradient>
<linearGradient id="paint19_linear_303_531" x1="88.9771" y1="115.164" x2="94.5803" y2="98.0583" gradientUnits="userSpaceOnUse">
<stop stop-color="#A400CA"/>
<stop offset="1" stop-color="#B136FF"/>
</linearGradient>
<linearGradient id="paint20_linear_303_531" x1="117.066" y1="54.295" x2="125.153" y2="29.608" gradientUnits="userSpaceOnUse">
<stop stop-color="#5B008B"/>
<stop offset="1" stop-color="#8E00FF"/>
</linearGradient>
<linearGradient id="paint21_linear_303_531" x1="126.259" y1="51.8788" x2="126.259" y2="25.4046" gradientUnits="userSpaceOnUse">
<stop stop-color="#B000D9"/>
<stop offset="1" stop-color="#E05CFF"/>
</linearGradient>
</defs>
</svg>
