<svg width="187" height="187" viewBox="0 0 187 187" fill="none" xmlns="http://www.w3.org/2000/svg">
<path fill-rule="evenodd" clip-rule="evenodd" d="M187 93.5C187 120.524 175.559 144.787 157.214 161.948C148.535 170.036 138.08 176.545 126.639 180.885C116.382 184.83 105.138 187 93.5 187C89.3576 187 85.2152 186.803 81.2701 186.211C63.3196 183.844 46.75 176.348 33.5338 165.104C23.8681 157.017 15.7806 146.957 10.0601 135.713C6.50949 128.612 3.74789 120.919 1.97257 112.831C0.591772 106.519 0 100.207 0 93.5C0 74.9578 5.32595 57.7964 14.597 43.3966C18.5422 37.2817 23.0791 31.5612 28.4051 26.6298C45.172 10.2574 68.2511 0.197266 93.5 0.197266C95.4726 0.197266 97.6424 0.19727 99.615 0.394528C110.267 0.9863 120.327 3.55064 129.795 7.49579C131.373 8.08756 132.951 8.87659 134.53 9.66562C143.603 14.0053 151.888 19.923 158.989 27.0243C176.348 43.7912 187 67.462 187 93.5Z" fill="url(#paint0_radial_303_461)"/>
<path fill-rule="evenodd" clip-rule="evenodd" d="M44.1857 155.439C36.2954 155.439 21.8956 143.998 14.9916 129.401C6.5095 111.056 6.31224 91.7247 10.4546 88.1741C11.6382 87.1878 13.2162 86.596 15.1888 86.596C16.3724 86.596 17.9504 86.7933 19.3312 87.1878C29.1941 90.1466 43.0021 103.757 48.9198 117.565C54.6403 130.979 53.0623 141.631 51.2869 148.14C50.1034 154.255 46.75 155.439 44.1857 155.439Z" fill="url(#paint1_linear_303_461)"/>
<path fill-rule="evenodd" clip-rule="evenodd" d="M50.1036 147.746C49.1173 151.494 47.3419 153.861 44.1858 153.861C37.4791 153.861 23.2765 143.209 16.5698 128.612C7.89046 110.267 8.48223 92.1192 11.6384 89.3576C13.2164 87.9768 15.978 87.7796 19.1341 88.7658C29.1943 91.7247 44.3831 104.546 47.5392 117.96C50.4981 129.204 51.8789 141.039 50.1036 147.746Z" fill="url(#paint2_linear_303_461)"/>
<path fill-rule="evenodd" clip-rule="evenodd" d="M17.7531 80.481C16.7668 80.481 15.7805 80.0865 15.1887 79.2975C12.6244 76.3386 16.3723 65.884 17.9503 62.1361C20.5147 56.2184 23.2763 53.0623 25.6434 53.0623C26.6297 53.0623 27.4187 53.4568 28.2077 54.0485L28.6022 54.4431C31.3638 57.2047 32.7446 63.7142 30.1803 68.8428C28.2077 72.5907 22.4872 79.1002 18.5421 80.0865C18.5421 80.481 18.1476 80.481 17.7531 80.481Z" fill="url(#paint3_linear_303_461)"/>
<path fill-rule="evenodd" clip-rule="evenodd" d="M29.5885 68.4483C27.8132 71.999 21.8955 78.5085 18.3448 79.4947C17.3585 79.692 16.5695 79.692 16.175 79.1002C13.6106 75.9441 21.1064 54.443 26.2351 54.2458C27.0242 54.2458 27.8132 54.6403 28.405 55.2321C30.5748 57.4019 31.9556 63.5169 29.5885 68.4483Z" fill="url(#paint4_linear_303_461)"/>
<path fill-rule="evenodd" clip-rule="evenodd" d="M149.916 153.072C146.76 153.072 144.393 151.888 143.406 149.521C141.434 145.181 142.42 129.204 148.732 115.198C158.003 94.2891 171.022 88.7659 176.348 88.7659C176.743 88.7659 177.137 88.7659 177.335 88.7659C177.532 88.7659 177.729 88.7659 177.926 88.9631C179.307 89.3577 180.688 90.5412 181.477 92.3165C185.225 100.01 183.055 118.946 176.94 132.163C171.614 144.59 158.398 153.072 149.916 153.072Z" fill="url(#paint5_linear_303_461)"/>
<path fill-rule="evenodd" clip-rule="evenodd" d="M175.756 131.768C168.26 147.943 148.337 156.031 144.984 148.929C143.209 145.379 143.998 130.19 150.31 115.987C159.778 94.8808 172.797 89.9494 177.334 90.5411H177.531C184.041 92.3165 183.055 115.79 175.756 131.768Z" fill="url(#paint6_linear_303_461)"/>
<path fill-rule="evenodd" clip-rule="evenodd" d="M174.376 87.5823C173.587 87.5823 172.995 87.385 172.403 86.9905C168.458 84.6234 165.893 69.4346 168.655 64.7004C169.444 63.3196 170.43 62.9251 171.022 62.9251C171.219 62.9251 171.614 62.9251 172.008 62.9251C176.348 62.9251 180.688 68.0538 182.266 74.7606C183.252 79.4947 181.28 83.4399 178.912 85.4125C177.532 86.7933 175.954 87.5823 174.376 87.5823Z" fill="url(#paint7_linear_303_461)"/>
<path fill-rule="evenodd" clip-rule="evenodd" d="M177.926 84.2289C176.348 85.8069 174.573 86.3987 173.389 85.6097C170.233 83.8343 167.866 69.6318 170.233 65.4894C170.628 64.8976 171.022 64.5031 171.417 64.5031C174.573 63.9114 179.11 68.0538 180.688 75.155C181.477 78.9029 179.899 82.2563 177.926 84.2289Z" fill="url(#paint8_linear_303_461)"/>
<path fill-rule="evenodd" clip-rule="evenodd" d="M99.4178 185.816C98.8261 185.816 98.2343 185.816 97.6425 185.816C87.9769 185.619 80.6784 181.477 79.4948 177.926C79.1003 176.545 79.2976 175.165 80.2839 174.376C83.2427 171.811 95.6699 171.614 98.2343 171.614C106.322 171.614 116.185 172.403 116.974 176.151C117.171 177.137 117.171 178.518 115.593 180.293C113.423 182.463 110.464 185.816 99.4178 185.816Z" fill="url(#paint9_linear_303_461)"/>
<path fill-rule="evenodd" clip-rule="evenodd" d="M114.409 178.912C112.042 181.477 109.281 184.436 97.6424 184.238C86.3987 183.844 78.5084 177.926 81.27 175.559C85.0179 172.403 114.212 172.206 115.198 176.545C115.593 177.137 115.396 178.123 114.409 178.912Z" fill="url(#paint10_linear_303_461)"/>
<path fill-rule="evenodd" clip-rule="evenodd" d="M144.787 94.8808C138.475 94.8808 133.741 91.9219 131.176 86.596C125.259 73.577 125.259 48.328 129.598 38.2679C130.782 35.7035 131.965 34.1255 133.543 33.5337C135.121 32.9419 136.7 32.5474 138.475 32.5474C143.998 32.5474 149.719 36.2953 155.044 43.1993C163.724 54.6403 169.839 73.1825 167.472 81.4673C166.683 84.0316 164.513 86.9905 160.962 89.3576C156.031 92.7109 150.113 94.8808 144.787 94.8808Z" fill="url(#paint11_linear_303_461)"/>
<path fill-rule="evenodd" clip-rule="evenodd" d="M165.893 80.8755C165.302 83.2426 163.132 85.807 159.976 87.9768C151.888 93.8945 137.685 97.0507 132.557 86.0042C126.836 73.3798 126.836 48.7226 130.979 38.8597C131.768 36.8871 132.951 35.5063 134.135 34.9146C151.691 27.616 169.247 68.6456 165.893 80.8755Z" fill="url(#paint12_linear_303_461)"/>
<path fill-rule="evenodd" clip-rule="evenodd" d="M50.1033 147.746C41.0294 151.099 26.8269 139.658 19.5284 120.919C13.0189 104.546 17.9503 91.5275 19.3311 88.7659C29.3912 91.7247 44.5801 104.546 47.7362 117.96C50.4978 129.204 51.8786 141.039 50.1033 147.746Z" fill="#FFFF45"/>
<path fill-rule="evenodd" clip-rule="evenodd" d="M114.409 178.912C95.0782 184.83 81.2701 175.362 81.2701 175.362C85.018 172.206 114.212 172.008 115.198 176.348C115.593 177.137 115.396 178.123 114.409 178.912Z" fill="#FFFF45"/>
<path fill-rule="evenodd" clip-rule="evenodd" d="M172.6 130.19C159.384 151.691 144.787 148.929 144.787 148.929C143.011 145.379 143.8 130.19 150.113 115.987C159.581 94.8808 172.6 89.9494 177.137 90.5411H177.334C180.096 98.6287 182.068 114.804 172.6 130.19Z" fill="#FFFF45"/>
<path fill-rule="evenodd" clip-rule="evenodd" d="M159.976 87.9768C151.888 93.8945 137.685 97.0507 132.557 86.0042C126.836 73.3798 126.836 48.7226 130.979 38.8597C134.529 38.4652 141.433 39.6487 149.126 51.0897C160.173 66.8703 163.723 78.903 159.976 87.9768Z" fill="#FFFF45"/>
<path fill-rule="evenodd" clip-rule="evenodd" d="M177.926 84.229C176.348 85.8071 174.573 86.3988 173.389 85.6098C170.233 83.8345 167.866 69.632 170.233 65.4896C172.6 66.8704 176.348 69.8292 177.334 75.1552C177.729 78.5086 177.926 81.6647 177.926 84.229Z" fill="#FFFF45"/>
<path fill-rule="evenodd" clip-rule="evenodd" d="M29.5885 68.4484C27.8132 71.999 21.8955 78.5085 18.3448 79.4948C18.5421 78.114 21.3037 61.3471 28.2077 55.2321C30.5748 57.4019 31.9556 63.5169 29.5885 68.4484Z" fill="#FFFF45"/>
<path opacity="0.3" fill-rule="evenodd" clip-rule="evenodd" d="M142.025 115.593C141.039 117.763 140.053 119.735 138.672 121.708C137.488 123.089 136.108 124.272 135.319 125.85C132.36 131.373 132.952 137.686 131.373 143.406C130.387 146.562 128.02 149.127 127.034 152.283C126.639 153.664 126.837 155.044 126.837 156.622C126.837 158.398 125.85 159.581 124.864 160.962C123.68 162.54 122.102 163.526 120.327 164.315C118.946 164.907 117.368 164.71 115.79 164.71C112.437 164.71 109.281 164.315 105.927 163.329C102.968 162.54 100.207 161.159 97.2479 160.173C95.2754 159.581 93.6973 159.779 91.7247 160.173C89.9494 160.568 87.9768 160.37 86.2015 160.37C83.0454 160.37 80.0865 162.146 77.3249 163.526C75.3524 164.513 73.9716 165.696 73.1825 167.866C72.1963 170.43 72.1963 172.798 69.2374 173.784C67.4621 174.376 65.2922 173.784 63.5169 173.389C61.9389 172.995 60.1635 173.192 58.5855 173.192C55.4294 173.192 52.4705 172.206 49.5116 170.825C46.1583 169.05 43.1994 166.485 40.6351 163.921C39.2543 162.54 37.2817 161.751 35.9009 160.37C33.9283 158.595 31.7585 156.82 29.9832 155.044C27.0243 152.085 23.8682 149.127 20.7121 146.365C18.345 144.59 16.3724 142.223 14.3998 140.053C12.8218 138.277 11.8355 135.713 10.6519 133.543C8.28484 129.401 6.31227 124.667 5.12873 119.933C3.74793 114.607 2.16986 108.886 2.36712 103.363C2.36712 98.6287 1.77535 94.289 1.77535 89.5549C1.38083 98.4314 1.77535 105.73 2.76164 112.634C1.38083 106.322 0.789062 100.01 0.789062 93.3028C0.789062 74.7606 6.11502 57.5992 15.3861 43.1994C19.3313 37.0844 23.8682 31.3639 29.1941 26.4325C45.961 10.0601 69.0401 0 94.2891 0C96.2617 0 98.4315 -3.01285e-06 100.404 0.197254C111.056 0.789027 121.116 3.35338 130.584 7.29853C132.952 9.86287 135.319 12.8217 137.094 15.7806C137.883 16.9641 138.277 18.3449 139.067 19.5285C139.658 20.712 140.447 21.1065 140.25 22.4873C140.053 23.2764 139.658 24.2627 139.264 25.0517C138.277 27.616 135.319 29.3914 133.149 30.7722C129.993 32.7447 126.442 33.5338 123.089 35.3091C120.919 36.4926 120.327 37.4789 118.749 39.2542C117.96 40.2405 116.974 40.8323 116.382 41.8186C114.607 44.5802 113.62 48.5253 113.818 51.6814C114.015 57.9937 118.946 62.5306 120.13 68.4483C121.116 73.577 120.327 79.1002 122.102 84.0317C123.878 89.7521 128.809 94.289 133.543 97.6424C135.516 99.0232 137.291 100.207 139.067 101.785C140.645 103.363 142.814 104.152 143.998 106.124C144.984 109.281 143.209 112.634 142.025 115.593Z" fill="url(#paint13_linear_303_461)"/>
<path fill-rule="evenodd" clip-rule="evenodd" d="M134.53 9.46833C134.135 9.46833 133.938 9.46833 133.543 9.66559C132.557 9.86285 131.571 9.66559 130.584 9.46833C129.795 9.27108 129.401 8.87656 128.415 8.87656C127.231 8.67931 126.245 8.28479 125.061 8.08753C123.878 7.89027 122.891 7.49576 121.708 7.10124C120.722 6.70673 120.327 6.90399 119.538 7.10124C118.749 7.2985 118.157 6.90399 117.368 6.70673C116.579 6.31221 115.593 6.31221 114.804 6.11496C112.437 5.72044 110.07 4.93142 107.703 4.33964C106.322 3.94513 104.941 3.94513 103.363 3.94513C102.179 3.94513 101.193 4.33964 100.01 4.33964C99.2205 4.33964 98.6287 4.14238 97.8397 4.14238C97.0507 3.94513 96.2616 4.14238 95.4726 4.14238C94.2891 3.94513 93.6973 3.74787 92.5137 4.14238C91.5275 4.33964 90.9357 4.33964 89.9494 4.5369C88.9631 4.5369 87.7796 4.93141 86.7933 5.12867C85.018 5.52318 83.0454 5.9177 81.2701 5.9177C80.0865 5.9177 78.5085 5.52319 77.5222 5.9177C76.9304 6.11496 76.5359 6.90399 75.9441 7.29851C74.9578 8.28479 73.9715 9.07382 73.1825 10.0601C72.3935 11.0464 71.6044 12.2299 71.6044 13.6107C71.6044 14.7943 72.1962 16.1751 72.788 17.1614C73.3798 18.3449 73.577 19.3312 72.3935 20.1202C71.0127 21.1065 69.2374 21.8955 67.6593 22.4873C66.4757 22.8818 65.4895 23.0791 64.7004 22.2901C64.3059 22.0928 64.1087 21.501 63.7141 21.1065C63.3196 20.9093 62.7279 21.1065 62.3334 21.3038C61.1498 21.6983 59.9663 22.0928 58.7827 22.2901C57.9937 22.4873 57.4019 22.8818 56.6129 22.8818C55.8239 23.0791 55.2321 22.4873 54.2458 22.6846C53.0623 22.8818 51.6814 23.4736 50.4979 23.4736C49.5116 23.4736 48.3281 23.0791 47.539 22.6846C47.1445 22.4873 46.9473 22.0928 46.3555 22.2901C45.961 22.2901 45.3692 22.8818 45.172 23.2764C44.7774 23.6709 44.7774 24.2626 44.3829 24.6571C43.9884 25.2489 43.7912 25.6434 43.3966 26.2352C42.8049 27.2215 42.2131 28.2078 41.6213 29.1941C41.2268 29.7858 40.8323 30.7721 40.2405 31.3639C40.0433 31.7584 39.4515 31.9557 39.057 32.1529C38.0707 32.7447 37.0844 33.5337 36.0981 34.1255C34.3228 35.5063 32.5475 37.0844 30.7722 38.4652C29.3914 39.4515 27.4188 40.0432 25.8407 40.8323C24.8544 41.2268 23.8682 41.6213 22.8819 42.0158C22.4874 42.2131 21.8956 42.2131 21.6983 42.6076C21.3038 43.0021 21.1066 43.3966 20.9093 43.9884C20.1203 44.9747 19.134 46.1582 18.5422 47.3418C18.1477 48.1308 17.9504 48.7226 17.5559 49.5116C17.1614 50.4979 16.5696 51.4842 16.3724 52.6677C15.5833 54.8375 15.5833 57.2046 14.5971 59.3745C14.2025 60.558 13.4135 61.7415 12.8217 62.9251C11.8355 64.8977 11.6382 67.2648 11.4409 69.4346C11.2437 70.6181 11.4409 72.1962 11.6382 73.3797C11.8355 74.7605 11.8355 76.1413 11.8355 77.5221C11.8355 78.9029 10.8492 80.481 10.0601 81.4673C9.27111 82.4536 7.89031 82.8481 6.90402 83.8344C6.11499 84.6234 5.1287 85.4124 4.73418 86.596C4.53693 86.9905 4.73418 87.5823 4.73418 88.174C4.53693 89.3576 4.14241 90.3439 4.14241 91.5274C3.94516 92.9082 3.94516 94.289 3.94516 95.8671C3.94516 96.6561 3.94516 97.2479 3.94516 98.0369C3.94516 98.8259 4.14241 99.4177 4.33967 100.009C4.33967 100.404 4.33967 100.996 4.33967 101.39C4.33967 101.982 4.73418 102.574 4.73418 102.968C5.1287 104.349 5.32596 105.533 5.52322 106.913C5.72047 108.097 6.31225 109.281 6.5095 110.464C7.10128 112.042 7.29853 113.62 7.69305 115.396C7.8903 116.579 7.8903 117.96 8.08756 119.143C8.28482 120.13 8.48208 121.116 8.48208 122.102C8.48208 123.68 8.08756 125.061 8.08756 126.639C8.08756 129.204 9.07385 131.768 9.66562 134.332C9.86288 135.121 10.0601 135.713 10.2574 136.502C3.7479 123.878 0.197266 109.478 0.197266 94.289C0.197266 75.7468 5.52322 58.5854 14.7943 44.1856C18.7395 38.0707 23.2764 32.3502 28.6023 27.4188C45.3692 11.0464 68.4483 0.986267 93.6973 0.986267C95.6699 0.986267 97.8397 0.986264 99.8123 1.18352C112.042 1.18352 123.878 4.33964 134.53 9.46833Z" fill="url(#paint14_linear_303_461)"/>
<path opacity="0.3" fill-rule="evenodd" clip-rule="evenodd" d="M126.442 164.71C128.217 163.526 129.992 162.54 131.965 161.356C133.938 160.173 135.91 159.581 138.08 158.595C139.658 158.003 139.855 158.003 141.039 158.989C142.222 159.976 143.603 160.173 144.984 160.173C146.957 160.173 149.126 160.37 149.324 162.935C149.521 166.485 144.392 169.444 141.828 170.825C139.855 172.008 137.685 172.797 135.516 173.784C133.74 174.573 131.768 175.559 129.795 175.756C128.02 175.954 127.034 175.165 125.85 173.981C124.469 172.403 124.666 171.022 124.666 169.247C124.666 166.88 124.666 165.302 126.442 164.71Z" fill="url(#paint15_linear_303_461)"/>
<path opacity="0.3" fill-rule="evenodd" clip-rule="evenodd" d="M154.255 33.9283C155.636 36.6899 156.622 40.4378 158.792 42.8048C159.976 43.9884 160.765 44.1856 162.343 44.1856C163.132 44.1856 164.513 44.3829 165.302 44.1856C166.288 43.7911 166.288 42.6076 166.288 41.6213C166.091 37.8734 163.724 34.52 161.357 31.9557C159.779 30.1804 157.411 28.2078 154.847 28.6023C154.058 30.3776 153.861 32.1529 154.255 33.9283Z" fill="url(#paint16_linear_303_461)"/>
<path fill-rule="evenodd" clip-rule="evenodd" d="M102.771 181.082C102.574 181.477 102.18 181.674 102.377 182.069C102.574 182.266 102.969 182.463 103.166 182.463C103.56 182.66 104.349 182.463 104.744 182.266C105.138 182.069 104.941 181.674 104.744 181.28C104.349 180.688 103.758 180.491 103.166 180.885L102.771 181.082Z" fill="#FFFF45"/>
<path fill-rule="evenodd" clip-rule="evenodd" d="M41.6214 24.2626C40.6351 24.6571 40.2406 24.6571 39.2543 25.4461C38.4653 26.0379 37.6762 26.6297 36.8872 27.4187C35.9009 28.405 35.5064 29.3913 35.3092 30.3776C34.9146 31.3638 34.7174 32.5474 35.1119 33.1392C35.3091 33.3364 35.9009 33.3364 36.4927 33.3364C37.2817 33.1392 38.0708 32.5474 38.8598 32.1529C39.8461 31.5611 40.6351 30.5748 41.4241 29.5885C42.0159 28.7995 42.2132 28.0105 42.6077 27.2214C42.8049 26.6297 43.0022 26.2352 43.1995 25.8406C43.3967 25.4461 43.3967 25.0516 43.1995 24.8544C43.0022 24.2626 42.8049 24.2626 41.6214 24.2626Z" fill="#FFFF45"/>
<path fill-rule="evenodd" clip-rule="evenodd" d="M52.668 22.4873C52.2734 22.8818 51.4844 23.4736 52.0762 23.8681C52.2735 24.0654 52.4707 23.8681 52.668 24.0653C52.8652 24.0653 52.8652 24.2626 53.0625 24.0653C53.6543 24.0653 53.457 22.29 52.668 22.4873Z" fill="#FFFF45"/>
<path fill-rule="evenodd" clip-rule="evenodd" d="M55.6267 28.4051C55.824 28.2078 56.2185 28.2078 56.4157 28.2078C56.4157 28.6023 56.8103 29.1941 56.2185 29.5886C55.824 29.7859 56.0212 28.9969 55.824 28.9969L55.6267 28.4051Z" fill="#FFFF45"/>
<path fill-rule="evenodd" clip-rule="evenodd" d="M61.3472 28.4051C61.9389 28.6024 62.3335 28.7996 62.9252 28.9969C63.1225 28.7996 63.3197 28.7996 63.517 28.7996C63.7143 28.6024 63.9115 28.2079 64.1088 28.0106C64.306 27.6161 64.1088 27.2216 63.9115 26.8271C63.7143 26.6298 63.7143 26.2353 63.517 26.038C63.3197 25.8408 62.728 25.8408 62.5307 26.038C62.1362 26.2353 61.9389 26.4325 61.7417 26.8271C61.5444 27.0243 61.3472 27.6161 61.3472 27.8133C61.3472 28.2079 61.5444 28.6024 61.9389 28.7996L61.3472 28.4051Z" fill="#FFFF45"/>
<path fill-rule="evenodd" clip-rule="evenodd" d="M66.0812 136.502C66.6729 136.699 67.0675 136.897 67.6592 137.094C67.8565 136.897 68.0537 136.897 68.251 136.897C68.4483 136.699 68.6455 136.305 68.8428 136.108C69.04 135.713 68.8428 135.319 68.6455 134.924C68.4483 134.727 68.4483 134.332 68.251 134.135C68.0537 133.938 67.462 133.938 67.2647 134.135C66.8702 134.332 66.6729 134.53 66.4757 134.924C66.2784 135.121 66.0812 135.713 66.0812 135.91C66.0812 136.305 66.2784 136.699 66.6729 136.897L66.0812 136.502Z" fill="#FFFF45"/>
<path fill-rule="evenodd" clip-rule="evenodd" d="M46.1583 33.5338C45.961 33.7311 45.7638 33.9283 45.5665 34.1256C45.7638 34.3228 45.961 34.7174 46.3556 34.7174C46.5528 34.7174 46.7501 34.7174 46.7501 34.7174C46.9473 34.5201 46.7501 34.3228 46.9473 34.3228C47.1446 33.9283 47.1446 33.9283 46.9473 33.5338C46.7501 33.3365 46.7501 33.3365 46.5528 33.3365C46.3556 33.3365 46.1583 33.3365 45.961 33.5338H46.1583Z" fill="#FFFF45"/>
<path fill-rule="evenodd" clip-rule="evenodd" d="M47.3418 42.0159C47.3418 42.0159 46.9473 43.1994 47.3418 42.8049C47.7364 42.6076 47.7364 42.2131 47.3418 42.0159C47.5391 42.0159 47.5391 42.0159 47.3418 42.0159Z" fill="#FFFF45"/>
<path fill-rule="evenodd" clip-rule="evenodd" d="M39.649 56.2184C39.2545 56.613 39.2545 56.8102 39.0573 57.402C39.2545 57.5992 39.4518 57.5992 39.649 57.5992C40.0435 57.5992 40.0435 57.402 40.0435 57.2047C40.0435 57.0075 40.2408 56.8102 40.0435 56.613C40.0435 56.2184 39.8463 56.0212 39.649 56.2184Z" fill="#FFFF45"/>
<path fill-rule="evenodd" clip-rule="evenodd" d="M51.4843 34.5201C51.6815 34.7173 51.8788 34.9146 51.8788 35.1118C51.6815 35.1118 51.4843 34.9146 51.4843 34.7173C51.4843 34.3228 51.4842 34.5201 51.6815 34.1255L51.4843 34.5201Z" fill="#FFFF45"/>
<path fill-rule="evenodd" clip-rule="evenodd" d="M48.7225 23.4736C48.5252 23.6709 48.328 23.8681 48.1307 24.0654C48.328 24.2626 48.1307 24.4599 48.5252 24.4599C48.7225 24.4599 48.9198 24.2626 49.117 24.0654C49.3143 23.8681 49.3143 23.6709 49.3143 23.4736C49.3143 23.2763 49.3143 22.8818 49.117 23.2763L48.7225 23.4736Z" fill="#FFFF45"/>
<path fill-rule="evenodd" clip-rule="evenodd" d="M84.6233 17.7531C84.6233 17.5558 84.8205 17.1613 84.8205 16.964L85.0178 16.7668C85.2151 16.5695 85.2151 16.5695 85.4123 16.5695C85.6096 16.5695 85.8068 16.5695 86.2013 16.7668C86.9904 17.3586 85.0178 17.9503 84.8205 17.3586L84.6233 17.7531Z" fill="#FFFF45"/>
<path fill-rule="evenodd" clip-rule="evenodd" d="M91.3305 20.3176C91.1333 20.7121 90.936 21.3038 91.3305 21.6984C91.725 21.8956 92.5141 21.5011 92.7113 21.3038C93.3031 20.9093 93.8949 19.923 93.3031 19.3313C93.1058 18.9368 92.1196 18.7395 91.725 18.7395C90.7388 18.7395 90.5415 19.923 90.3442 20.9093L91.3305 20.3176Z" fill="#FFFF45"/>
<path fill-rule="evenodd" clip-rule="evenodd" d="M94.2891 11.0464C94.0918 10.2574 94.0918 9.46836 94.6836 9.07384C95.0781 8.87659 95.6699 8.67933 96.0644 9.07384C96.2616 9.2711 96.4589 9.66562 96.6561 9.86288C96.8534 10.2574 96.8534 10.2574 96.6561 10.6519C96.4589 11.4409 96.2616 12.0327 95.2753 12.0327C94.0918 12.0327 94.0918 11.2437 94.0918 10.0601V11.0464H94.2891Z" fill="#FFFF45"/>
<path fill-rule="evenodd" clip-rule="evenodd" d="M104.349 24.8545C104.941 24.6572 105.533 24.46 105.927 23.8682C105.533 23.6709 104.546 23.0792 104.349 23.8682V24.8545Z" fill="#FFFF45"/>
<path fill-rule="evenodd" clip-rule="evenodd" d="M69.6318 149.127C70.2236 148.929 70.8154 148.732 71.2099 148.14C70.8154 147.943 69.8291 147.351 69.6318 148.14V149.127Z" fill="#FFC445"/>
<path fill-rule="evenodd" clip-rule="evenodd" d="M133.741 162.54C134.332 162.343 134.924 162.146 135.319 161.554C134.924 161.357 133.938 160.765 133.741 161.554V162.54Z" fill="#FFC445"/>
<path fill-rule="evenodd" clip-rule="evenodd" d="M112.042 36.8871C112.634 36.0981 113.423 34.9145 114.607 35.5063C115.198 35.9008 115.396 37.0844 114.804 37.4789C114.212 37.8734 113.818 38.0707 113.029 38.2679C112.634 38.4652 111.845 38.0707 112.042 37.2816V36.8871Z" fill="#FFFF45"/>
<path fill-rule="evenodd" clip-rule="evenodd" d="M70.4209 54.0485C71.0127 53.2595 71.8017 52.076 72.9853 52.6678C73.577 53.0623 73.7743 54.2458 73.1825 54.6403C72.5907 55.0348 72.1962 55.2321 71.4072 55.4294C71.0127 55.6266 70.2237 55.2321 70.4209 54.4431V54.0485Z" fill="#FFC445"/>
<path fill-rule="evenodd" clip-rule="evenodd" d="M139.461 23.4737C140.053 22.6846 140.842 21.5011 142.025 22.0929C142.617 22.4874 142.814 23.6709 142.223 24.0654C141.631 24.4599 141.236 24.6572 140.447 24.8545C140.053 25.0517 139.264 24.6572 139.461 23.8682V23.4737Z" fill="#FFC445"/>
<path fill-rule="evenodd" clip-rule="evenodd" d="M100.799 87.1878C101.39 86.3988 102.18 85.2152 103.363 85.807C103.955 86.2015 104.152 87.385 103.56 87.7795C102.969 88.1741 102.574 88.3713 101.785 88.5686C101.39 88.7658 100.601 88.3713 100.799 87.5823V87.1878Z" fill="#FFC445"/>
<path fill-rule="evenodd" clip-rule="evenodd" d="M67.0675 28.2078C66.2785 28.6024 65.095 29.1941 64.8977 30.3777C64.8977 30.9694 65.095 31.364 65.6867 31.5612C66.0812 31.7585 66.8703 31.7585 67.462 31.5612C68.2511 31.1667 69.0401 30.5749 69.2374 29.9832C69.4346 29.3914 69.4346 28.9969 69.2374 28.6023C69.0401 28.4051 68.8428 28.0106 68.4483 27.8133C67.462 27.4188 66.8703 28.4051 66.0812 28.7996L67.0675 28.2078Z" fill="#FFFF45"/>
<path fill-rule="evenodd" clip-rule="evenodd" d="M69.4345 25.4461C69.8291 25.6434 70.2236 25.8406 70.4208 26.2351C70.0263 26.4324 69.6318 26.6296 69.2373 26.6296C68.6455 26.4324 68.6455 25.8406 68.6455 25.4461C68.6455 25.2488 69.2373 24.6571 69.4345 24.8543C69.6318 24.8543 69.6318 25.0516 69.6318 25.2488C69.8291 25.4461 69.8291 25.4461 69.6318 25.8406H69.4345V25.4461Z" fill="#FFFF45"/>
<path fill-rule="evenodd" clip-rule="evenodd" d="M27.8134 42.805C27.0243 43.594 26.2353 44.383 25.8408 45.3693C25.6435 45.9611 26.0381 45.9611 26.4326 45.7638C27.4189 45.5666 28.2079 45.3693 29.1942 45.1721C29.7859 44.9748 30.575 44.7776 30.7722 44.383C30.9695 43.9885 31.1667 43.3968 31.1667 43.0022C31.1667 42.4105 30.575 42.2132 30.1805 42.016C28.9969 41.6214 27.2216 42.4105 26.8271 43.594L27.8134 42.805Z" fill="#FFFF45"/>
<path fill-rule="evenodd" clip-rule="evenodd" d="M28.4053 46.9473C28.9971 46.9473 29.5889 47.1446 30.1806 47.3418C29.9834 47.5391 29.9834 47.7363 29.9834 47.9336C29.7861 48.3281 29.5889 48.5254 29.1943 48.7226C28.6026 49.1171 27.8135 49.1171 27.2218 48.9199C25.4465 48.3281 28.2081 46.3555 28.6026 46.9473H28.4053Z" fill="#FFFF45"/>
<path fill-rule="evenodd" clip-rule="evenodd" d="M81.862 9.46834C82.4538 9.07383 83.0456 8.87657 83.6373 8.67931C84.4264 8.48205 85.2154 8.48206 86.0044 8.48206C86.3989 8.48206 87.3852 8.48205 86.9907 9.07383C86.7935 9.86286 85.2154 10.4546 84.6236 10.6519C83.6373 11.0464 82.651 11.6382 81.4675 11.8354C80.8757 11.8354 79.8894 12.0327 79.4949 11.4409C79.2977 10.8491 79.2977 10.4546 79.6922 10.0601C79.8894 9.6656 80.284 9.46835 80.8757 9.27109C81.073 9.27109 82.4538 8.87657 82.4538 9.27109L81.862 9.46834Z" fill="#FFFF45"/>
<path fill-rule="evenodd" clip-rule="evenodd" d="M71.4074 9.66559C71.2101 9.86285 69.0403 11.0464 70.0266 11.6382C70.6183 11.8354 71.6046 11.8354 72.1964 11.6382C72.5909 11.4409 73.1827 11.0464 72.7882 10.4546C72.1964 9.27108 70.6183 10.0601 69.8293 10.4546L71.4074 9.66559Z" fill="#FFFF45"/>
<path fill-rule="evenodd" clip-rule="evenodd" d="M42.016 86.9906C42.2132 87.7796 42.4105 88.7659 43.1995 89.3577C43.9886 89.9494 44.9749 89.7522 45.5666 89.1604C46.1584 88.7659 46.7502 88.3714 47.1447 88.1741C47.5392 87.9769 47.7365 87.9769 47.7365 87.3851C47.7365 86.7933 47.3419 86.2016 46.9474 85.807C46.5529 85.4125 45.9611 84.8208 45.3694 84.6235C44.1858 84.229 42.016 84.6235 42.016 86.2016V86.9906Z" fill="#FFD32F"/>
<path fill-rule="evenodd" clip-rule="evenodd" d="M109.083 87.9769C109.281 88.7659 109.478 89.7522 110.267 90.344C111.056 90.9358 112.042 90.7385 112.634 90.1467C113.226 89.7522 113.818 89.3577 114.212 89.1605C114.607 88.9632 114.804 88.9632 114.804 88.3714C114.804 87.7797 114.409 87.1879 114.015 86.7934C113.62 86.3988 113.029 85.8071 112.437 85.6098C111.253 85.2153 109.083 85.6098 109.083 87.1879V87.9769Z" fill="#FFBA00"/>
<path fill-rule="evenodd" clip-rule="evenodd" d="M13.6107 121.708C13.6107 121.708 12.8217 125.061 15.1888 129.401C17.5559 133.741 19.3312 133.346 19.3312 133.346C19.3312 133.346 17.1614 125.456 13.6107 121.708Z" fill="#FFFF59"/>
<path fill-rule="evenodd" clip-rule="evenodd" d="M166.091 75.7468C166.091 75.7468 163.329 83.6371 162.935 84.8207C162.935 84.6234 167.274 83.4399 166.091 75.7468Z" fill="#FFFF59"/>
<path fill-rule="evenodd" clip-rule="evenodd" d="M180.885 78.1139C180.885 78.1139 178.913 79.4947 177.927 83.2426C177.927 83.2426 180.294 84.4261 180.885 78.1139Z" fill="#FFFF59"/>
<path fill-rule="evenodd" clip-rule="evenodd" d="M150.705 151.494C150.705 151.494 159.581 145.773 164.71 145.379C164.71 145.379 158.792 152.48 150.705 151.494Z" fill="#FFFF59"/>
<defs>
<radialGradient id="paint0_radial_303_461" cx="0" cy="0" r="1" gradientUnits="userSpaceOnUse" gradientTransform="translate(35.7273 49.8572) scale(150.117 150.117)">
<stop offset="0.00558659" stop-color="#FFB80B"/>
<stop offset="0.258" stop-color="#FFB60C"/>
<stop offset="0.384" stop-color="#FEAE10"/>
<stop offset="0.4821" stop-color="#FCA117"/>
<stop offset="0.5656" stop-color="#FA8E21"/>
<stop offset="0.6392" stop-color="#F7762E"/>
<stop offset="0.662" stop-color="#F66D33"/>
<stop offset="0.7209" stop-color="#EF6836"/>
<stop offset="0.8061" stop-color="#DC593D"/>
<stop offset="0.9068" stop-color="#BD4049"/>
<stop offset="0.9832" stop-color="#A02A54"/>
</radialGradient>
<linearGradient id="paint1_linear_303_461" x1="7.97986" y1="121.057" x2="53.2283" y2="121.057" gradientUnits="userSpaceOnUse">
<stop offset="0.0111732" stop-color="#FFA90B"/>
<stop offset="0.3713" stop-color="#FFA60E"/>
<stop offset="0.6354" stop-color="#FF9D16"/>
<stop offset="0.868" stop-color="#FF8D25"/>
<stop offset="1" stop-color="#FF8031"/>
</linearGradient>
<linearGradient id="paint2_linear_303_461" x1="9.57603" y1="121.057" x2="50.8381" y2="121.057" gradientUnits="userSpaceOnUse">
<stop offset="0.0111732" stop-color="#FFE00B"/>
<stop offset="0.3061" stop-color="#FFDD0D"/>
<stop offset="0.5224" stop-color="#FFD412"/>
<stop offset="0.7136" stop-color="#FFC41B"/>
<stop offset="0.8891" stop-color="#FFAD27"/>
<stop offset="1" stop-color="#FF9B31"/>
</linearGradient>
<linearGradient id="paint3_linear_303_461" x1="14.1105" y1="67.0583" x2="32.1267" y2="66.4869" gradientUnits="userSpaceOnUse">
<stop offset="0.0111732" stop-color="#FFA90B"/>
<stop offset="0.3713" stop-color="#FFA60E"/>
<stop offset="0.6354" stop-color="#FF9D16"/>
<stop offset="0.868" stop-color="#FF8D25"/>
<stop offset="1" stop-color="#FF8031"/>
</linearGradient>
<linearGradient id="paint4_linear_303_461" x1="15.2203" y1="67.0231" x2="30.9778" y2="66.5233" gradientUnits="userSpaceOnUse">
<stop offset="0.0111732" stop-color="#FFE00B"/>
<stop offset="0.3061" stop-color="#FFDD0D"/>
<stop offset="0.5224" stop-color="#FFD412"/>
<stop offset="0.7136" stop-color="#FFC41B"/>
<stop offset="0.8891" stop-color="#FFAD27"/>
<stop offset="1" stop-color="#FF9B31"/>
</linearGradient>
<linearGradient id="paint5_linear_303_461" x1="162.989" y1="153.107" x2="162.989" y2="88.9996" gradientUnits="userSpaceOnUse">
<stop offset="0.0111732" stop-color="#FF8E0B"/>
<stop offset="0.3475" stop-color="#FD8B0D"/>
<stop offset="0.5941" stop-color="#F98215"/>
<stop offset="0.8113" stop-color="#F17221"/>
<stop offset="1" stop-color="#E65D31"/>
</linearGradient>
<linearGradient id="paint6_linear_303_461" x1="144.103" y1="121.053" x2="181.835" y2="121.053" gradientUnits="userSpaceOnUse">
<stop offset="0.0111732" stop-color="#FFE00B"/>
<stop offset="0.3061" stop-color="#FFDD0D"/>
<stop offset="0.5224" stop-color="#FFD412"/>
<stop offset="0.7136" stop-color="#FFC41B"/>
<stop offset="0.8891" stop-color="#FFAD27"/>
<stop offset="1" stop-color="#FF9B31"/>
</linearGradient>
<linearGradient id="paint7_linear_303_461" x1="175.055" y1="87.5059" x2="175.055" y2="62.7641" gradientUnits="userSpaceOnUse">
<stop offset="0.0111732" stop-color="#FFA90B"/>
<stop offset="0.3713" stop-color="#FFA60E"/>
<stop offset="0.6354" stop-color="#FF9D16"/>
<stop offset="0.868" stop-color="#FF8D25"/>
<stop offset="1" stop-color="#FF8031"/>
</linearGradient>
<linearGradient id="paint8_linear_303_461" x1="175.041" y1="85.8844" x2="175.041" y2="64.3858" gradientUnits="userSpaceOnUse">
<stop offset="0.0111732" stop-color="#FFE00B"/>
<stop offset="0.3061" stop-color="#FFDD0D"/>
<stop offset="0.5224" stop-color="#FFD412"/>
<stop offset="0.7136" stop-color="#FFC41B"/>
<stop offset="0.8891" stop-color="#FFAD27"/>
<stop offset="1" stop-color="#FF9B31"/>
</linearGradient>
<linearGradient id="paint9_linear_303_461" x1="98.184" y1="185.823" x2="98.184" y2="171.41" gradientUnits="userSpaceOnUse">
<stop offset="0.0111732" stop-color="#FFA90B"/>
<stop offset="0.3713" stop-color="#FFA60E"/>
<stop offset="0.6354" stop-color="#FF9D16"/>
<stop offset="0.868" stop-color="#FF8D25"/>
<stop offset="1" stop-color="#FF8031"/>
</linearGradient>
<linearGradient id="paint10_linear_303_461" x1="98.182" y1="184.202" x2="98.182" y2="173.031" gradientUnits="userSpaceOnUse">
<stop offset="0.0111732" stop-color="#FFE00B"/>
<stop offset="0.3061" stop-color="#FFDD0D"/>
<stop offset="0.5224" stop-color="#FFD412"/>
<stop offset="0.7136" stop-color="#FFC41B"/>
<stop offset="0.8891" stop-color="#FFAD27"/>
<stop offset="1" stop-color="#FF9B31"/>
</linearGradient>
<linearGradient id="paint11_linear_303_461" x1="143.37" y1="94.9005" x2="151.455" y2="34.0016" gradientUnits="userSpaceOnUse">
<stop offset="0.0111732" stop-color="#FFA90B"/>
<stop offset="0.3713" stop-color="#FFA60E"/>
<stop offset="0.6354" stop-color="#FF9D16"/>
<stop offset="0.868" stop-color="#FF8D25"/>
<stop offset="1" stop-color="#FF8031"/>
</linearGradient>
<linearGradient id="paint12_linear_303_461" x1="143.579" y1="93.2953" x2="151.237" y2="35.6075" gradientUnits="userSpaceOnUse">
<stop offset="0.0111732" stop-color="#FFE00B"/>
<stop offset="0.3061" stop-color="#FFDD0D"/>
<stop offset="0.5224" stop-color="#FFD412"/>
<stop offset="0.7136" stop-color="#FFC41B"/>
<stop offset="0.8891" stop-color="#FFAD27"/>
<stop offset="1" stop-color="#FF9B31"/>
</linearGradient>
<linearGradient id="paint13_linear_303_461" x1="0.154683" y1="87.06" x2="143.885" y2="87.06" gradientUnits="userSpaceOnUse">
<stop offset="0.0111732" stop-color="#FFE00B"/>
<stop offset="0.3061" stop-color="#FFDD0D"/>
<stop offset="0.5224" stop-color="#FFD412"/>
<stop offset="0.7136" stop-color="#F67C27"/>
<stop offset="0.8891" stop-color="#ED6930"/>
<stop offset="1" stop-color="#E76332"/>
</linearGradient>
<linearGradient id="paint14_linear_303_461" x1="0.154658" y1="67.9252" x2="134.585" y2="67.9252" gradientUnits="userSpaceOnUse">
<stop offset="0.0111732" stop-color="#FFE00B"/>
<stop offset="0.3061" stop-color="#FFDD0D"/>
<stop offset="0.5224" stop-color="#FFD412"/>
<stop offset="0.7136" stop-color="#FFC41B"/>
<stop offset="0.8891" stop-color="#FFAD27"/>
<stop offset="1" stop-color="#FF9B31"/>
</linearGradient>
<linearGradient id="paint15_linear_303_461" x1="124.732" y1="166.97" x2="149.383" y2="166.97" gradientUnits="userSpaceOnUse">
<stop offset="0.0111732" stop-color="#FFE00B"/>
<stop offset="0.3061" stop-color="#FFDD0D"/>
<stop offset="0.5224" stop-color="#FFD412"/>
<stop offset="0.7136" stop-color="#FFC41B"/>
<stop offset="0.8891" stop-color="#FFAD27"/>
<stop offset="1" stop-color="#FF9B31"/>
</linearGradient>
<linearGradient id="paint16_linear_303_461" x1="154.001" y1="36.4963" x2="166.134" y2="36.4963" gradientUnits="userSpaceOnUse">
<stop offset="0.0111732" stop-color="#FFE00B"/>
<stop offset="0.3061" stop-color="#FFDD0D"/>
<stop offset="0.5224" stop-color="#FFD412"/>
<stop offset="0.7136" stop-color="#FFC41B"/>
<stop offset="0.8891" stop-color="#FFAD27"/>
<stop offset="1" stop-color="#FF9B31"/>
</linearGradient>
</defs>
</svg>
