<svg width="202" height="197" viewBox="0 0 202 197" fill="none" xmlns="http://www.w3.org/2000/svg">
<g filter="url(#filter0_d_303_610)">
<path fill-rule="evenodd" clip-rule="evenodd" d="M195.01 93.1091C195.01 102.183 193.827 110.863 191.46 118.951C186.725 135.521 177.651 150.119 165.223 161.56C156.544 169.648 146.089 176.158 134.647 180.497C124.389 184.443 113.145 186.613 101.507 186.613C99.9286 186.613 98.1533 186.613 96.5751 186.415C94.208 186.218 91.6435 186.021 89.2764 185.824C71.3253 183.456 54.755 175.96 41.5382 164.716C36.6066 160.574 32.0695 155.839 27.9269 150.71C24.968 146.962 22.2062 142.82 19.8391 138.48C19.2473 137.494 18.6555 136.31 18.0637 135.324C17.4719 134.14 16.8801 133.154 16.4856 131.97C14.9075 128.42 13.5266 124.671 12.343 120.923C11.554 118.162 10.7649 115.4 10.1731 112.638C9.77856 110.666 9.38403 108.693 9.18676 106.523C8.59497 102.183 8.20044 97.8434 8.20044 93.3064C8.20044 90.7419 8.20046 88.1775 8.59499 85.613C8.79226 84.0349 8.79223 82.4568 9.18676 80.8786C10.3704 71.6072 12.9348 62.9275 16.6828 54.8397C18.4582 50.8944 20.6281 46.9491 22.9953 43.3983C26.9406 37.2831 31.4777 31.5624 36.8039 26.4335C53.5714 10.0605 76.6514 0 101.901 0C102.888 0 103.874 0 104.86 0C105.847 0 107.03 4.5121e-06 108.017 0.19727C113.343 0.591799 118.669 1.38086 123.6 2.56445C126.559 3.35351 129.518 4.14257 132.28 5.12889C134.253 5.72069 136.028 6.50975 138.001 7.29881C139.382 7.8906 140.763 8.4824 142.143 9.07419C142.341 9.27146 142.538 9.27146 142.932 9.46873C152.007 13.8086 160.292 19.7265 167.393 26.828C168.38 27.8144 169.366 28.8007 170.352 29.787C170.944 30.5761 171.733 31.1679 172.325 31.9569C173.509 33.1405 174.495 34.5214 175.481 35.705C179.229 40.4393 182.385 45.5682 185.147 50.8944C188.303 57.2069 190.868 63.9139 192.643 70.8181C194.024 77.9197 195.01 85.4157 195.01 93.1091Z" fill="url(#paint0_radial_303_610)"/>
<path opacity="0.5" fill-rule="evenodd" clip-rule="evenodd" d="M142.538 9.07431C142.143 9.07431 141.946 9.07431 141.552 9.27157C140.565 9.46884 139.579 9.27158 138.593 9.07431C137.803 8.87705 137.409 8.48252 136.423 8.48252C135.239 8.28525 134.253 7.89072 133.069 7.69346C131.886 7.49619 130.899 7.10166 129.716 6.70713C128.729 6.3126 128.335 6.50987 127.546 6.70713C126.757 6.9044 126.165 6.50986 125.376 6.3126C124.587 5.91807 123.6 5.91807 122.811 5.72081C120.444 5.32628 118.077 4.53721 115.71 3.94542C114.329 3.55089 112.948 3.55089 111.37 3.55089C110.186 3.55089 109.2 3.94542 108.017 3.94542C107.227 3.94542 106.636 3.74816 105.847 3.74816C105.058 3.55089 104.268 3.74816 103.479 3.74816C102.296 3.55089 101.704 3.35363 100.52 3.74816C99.5341 3.94542 98.9423 3.94542 97.956 4.14269C96.9697 4.14269 95.7861 4.53722 94.7998 4.73448C93.0244 5.12901 91.0518 5.52354 89.2764 5.52354C88.0928 5.52354 86.5147 5.12901 85.5283 5.52354C84.9366 5.72081 84.542 6.50986 83.9502 6.90439C82.9639 7.89072 81.9776 8.67978 81.1885 9.66611C80.3994 10.6524 79.6104 11.836 79.6104 13.2169C79.6104 14.4005 80.2021 15.7813 80.7939 16.7676C81.3857 17.9512 81.583 18.9376 80.3994 19.7266C79.0186 20.7129 77.2432 21.502 75.6651 22.0938C74.4815 22.4883 73.4952 22.6856 72.7061 21.8965C72.3116 21.6993 72.1143 21.1075 71.7198 20.7129C71.3253 20.5157 70.7334 20.7129 70.3389 20.9102C69.1553 21.3047 67.9718 21.6993 66.7882 21.8965C65.9991 22.0938 65.4073 22.4883 64.6182 22.4883C63.8292 22.6856 63.2374 22.0938 62.251 22.2911C61.0674 22.4883 59.6866 23.0801 58.503 23.0801C57.5167 23.0801 56.3331 22.6856 55.544 22.2911C55.1495 22.0938 54.9522 21.6993 54.3604 21.8965C53.9659 21.8965 53.3741 22.4883 53.1768 22.8829C52.7823 23.2774 52.7823 23.8692 52.3878 24.2637C51.9933 24.8555 51.796 25.25 51.4015 25.8418C50.8097 26.8282 50.2179 27.8145 49.6261 28.8008C49.2316 29.3926 48.837 30.3789 48.2452 30.9707C48.0479 31.3653 47.4562 31.5625 47.0617 31.7598C46.0753 32.3516 45.089 33.1406 44.1027 33.7324C42.3273 35.1133 40.5519 36.6914 38.7765 38.0723C37.3957 39.0586 35.423 39.6504 33.8449 40.4394C32.8586 40.834 31.8722 41.2285 30.8859 41.623C30.4914 41.8203 29.8996 41.8203 29.7023 42.2148C29.3078 42.6094 29.1105 43.0039 28.9133 43.5957C28.1242 44.582 27.1379 45.7656 26.5461 46.9492C26.1515 47.7383 25.9543 48.3301 25.5597 49.1191C25.1652 50.1054 24.5735 51.0918 24.3762 52.2753C23.5871 54.4453 23.5871 56.8124 22.6008 58.9824C22.2062 60.166 21.4172 61.3495 20.8254 62.5331C19.8391 64.5058 19.6418 66.873 19.4446 69.0429C19.2473 70.2265 19.4445 71.8046 19.6418 72.9882C19.8391 74.369 19.8391 75.7499 19.8391 77.1307C19.8391 78.5116 18.8527 80.0897 18.0637 81.076C17.2746 82.0624 15.8938 82.4569 14.9074 83.4432C14.1184 84.2323 13.132 85.0213 12.7375 86.2049C12.5402 86.5995 12.7375 87.1913 12.7375 87.7831C12.5402 88.9666 12.1457 89.953 12.1457 91.1366C11.9485 92.5174 11.9485 93.8983 11.9485 95.4764C11.9485 96.2654 11.9485 96.8572 11.9485 97.6463C11.9485 98.4354 12.1458 99.0272 12.343 99.6189C12.343 100.013 12.343 100.605 12.343 101C12.343 101.592 12.7375 102.183 12.7375 102.578C13.132 103.959 13.3294 105.142 13.5266 106.523C13.7239 107.707 14.3157 108.89 14.5129 110.074C15.1047 111.652 15.302 113.23 15.6965 115.006C15.8938 116.189 15.8938 117.57 16.091 118.754C16.2883 119.74 16.4856 120.726 16.4856 121.713C16.4856 123.291 16.091 124.672 16.091 126.25C16.091 128.814 17.0773 131.379 17.6691 133.943C17.8664 134.732 18.0637 135.324 18.261 136.113C11.7512 123.488 8.20044 109.088 8.20044 93.8983C8.20044 75.3554 13.5266 58.1933 22.798 43.793C26.7433 37.6777 31.2804 31.9571 36.6066 27.0254C53.3741 10.6524 76.4541 0.591919 101.704 0.591919C103.677 0.591919 105.847 0.591916 107.819 0.789181C120.05 0.591916 131.886 3.94542 142.538 9.07431Z" fill="url(#paint1_linear_303_610)"/>
<path fill-rule="evenodd" clip-rule="evenodd" d="M48.0479 90.939C78.2295 95.6734 76.454 103.761 111.567 94.0953C146.68 84.4293 171.93 31.7595 171.93 31.7595C171.93 31.7595 173.706 27.8142 172.128 25.447C171.536 24.4607 166.999 26.4334 166.999 26.4334C167.788 43.3982 144.116 78.5113 117.288 88.5719C114.329 89.5582 111.567 89.9527 108.806 90.5445C107.622 89.9527 104.466 86.9937 119.063 77.1305C136.423 65.4918 144.116 61.152 142.538 48.9216C140.96 36.6912 156.346 17.5564 156.346 17.5564C156.346 17.5564 157.53 12.4276 154.571 9.27132C150.823 5.12875 142.538 9.27132 142.538 9.27132C142.538 9.27132 140.368 33.1404 110.186 45.9626C80.0049 58.7848 63.04 52.4724 51.5987 48.9216C39.96 45.3708 36.6065 26.2361 36.6065 26.2361C36.6065 26.2361 26.7433 24.2635 23.1925 30.3787C20.6281 34.9158 24.3761 40.6364 24.3761 40.6364C24.3761 40.6364 42.7217 47.3435 59.0947 53.6559C75.4677 59.9684 107.03 54.2477 118.077 48.9216C129.321 43.5954 129.321 34.9158 138.198 27.0252C141.946 23.8689 145.694 21.5017 148.85 20.1209C148.85 20.1209 138.987 35.3103 140.171 45.9626C141.354 56.6149 134.647 56.2204 118.077 74.9606C106.438 87.9801 96.3778 92.3199 91.4462 93.5035C78.8213 94.6871 67.1826 93.3062 51.5987 88.9664C26.1515 82.0621 10.9621 71.0153 10.9621 71.0153C10.9621 71.0153 8.79216 70.0289 8.0031 72.3961C7.60857 73.3825 9.97575 76.3414 9.97575 76.3414C9.97575 76.3414 17.8664 86.0074 48.0479 90.939Z" fill="url(#paint2_linear_303_610)"/>
<path fill-rule="evenodd" clip-rule="evenodd" d="M69.3528 180.498C69.3528 180.498 61.8568 175.763 56.3333 161.363C50.8099 146.963 51.4017 147.949 40.9467 138.875C30.4916 129.801 12.3433 120.924 12.3433 120.924C12.3433 120.924 11.1597 121.318 11.1597 121.713C11.1597 123.488 13.3296 123.883 13.3296 123.883C13.3296 123.883 30.2944 131.181 40.9467 142.82C51.599 154.459 63.0404 175.369 54.9525 174.185C54.9525 174.185 56.7279 179.314 61.0677 180.498C65.2103 181.681 69.3528 180.498 69.3528 180.498Z" fill="url(#paint3_radial_303_610)"/>
<path d="M143.722 110.863C147.272 107.115 151.415 102.183 168.38 101.986C185.344 101.789 194.024 105.537 194.024 105.537C194.024 105.537 197.575 104.551 197.969 100.013C198.364 95.4764 194.813 93.3065 194.813 93.3065C194.616 94.6873 192.84 104.156 178.44 98.6326C178.44 98.4353 183.569 93.8983 184.555 84.4295C185.739 74.9608 189.092 61.3495 189.092 61.3495C189.092 61.3495 191.065 57.996 189.881 55.2343C189.487 54.248 186.133 53.8535 186.133 53.8535C189.092 72.9882 181.794 95.8709 173.903 98.6326C164.434 98.8299 152.796 100.408 147.469 103.959C140.96 108.299 134.45 127.631 130.308 141.242C129.321 144.595 127.151 148.343 124.39 151.894C113.935 154.459 117.288 141.834 112.751 138.086C108.214 134.338 99.7314 136.31 94.0107 134.338C88.4873 132.168 86.9092 127.828 80.9912 127.039C75.0733 126.25 65.6046 137.494 54.755 132.957C43.9054 128.42 8.00316 85.8104 8.00316 85.8104C8.00316 85.8104 4.84692 85.0213 4.05786 87.1912C3.46607 88.9666 7.60867 93.5037 7.60867 93.5037C7.60867 93.5037 32.6613 131.181 56.5304 136.113C80.3994 141.045 102.099 136.507 109.595 142.82C117.091 149.33 117.683 159.588 117.683 159.785C109.989 168.07 100.718 175.171 96.3779 177.341C88.8819 181.089 76.6514 183.654 76.6514 183.654C78.4268 185.626 81.7803 187.205 85.3311 188.191C90.6572 189.572 94.0107 187.007 94.0107 187.007C94.0107 187.007 91.0517 184.443 94.997 181.089C105.058 172.607 112.356 169.056 122.811 166.492C129.124 164.914 131.097 167.873 131.886 166.886C141.749 170.043 149.442 162.744 157.727 155.839C166.012 149.132 176.862 148.146 176.862 148.146C176.862 148.146 182.385 147.16 183.964 144.793C185.344 142.623 182.188 140.058 182.188 140.058C182.188 140.058 177.454 142.031 168.38 146.568C159.503 151.105 149.837 164.322 138.79 163.927C132.675 163.73 134.056 157.615 133.464 156.629C133.464 156.234 133.464 155.839 133.464 155.248C133.266 150.908 132.28 146.765 132.28 143.609C132.28 142.82 132.28 142.031 132.477 141.242C134.056 136.31 140.171 114.414 143.722 110.863ZM124.587 151.697C122.614 154.261 120.444 156.826 118.077 159.39L124.587 151.697ZM133.069 158.404C133.266 159.39 133.464 160.377 133.267 161.56C133.267 162.152 133.069 162.546 132.675 162.744C132.28 162.941 132.083 162.941 131.688 162.941C131.294 163.138 130.702 163.138 130.308 163.336C129.518 163.533 128.729 163.336 128.138 163.336C127.348 163.336 126.559 163.336 125.77 163.336C125.376 163.336 124.981 163.138 124.587 163.138C124.192 163.138 123.601 163.138 123.403 162.941C122.614 162.546 122.022 161.56 121.431 161.363C121.431 160.574 121.431 159.982 121.825 159.39C121.825 159.193 122.022 158.996 122.022 158.601C122.22 158.207 122.22 157.812 122.417 157.418C122.811 156.431 123.206 155.445 123.995 154.656C124.192 154.261 124.587 153.67 124.784 153.275C125.179 152.683 125.573 152.289 125.968 151.894C126.559 151.302 127.151 150.711 127.94 150.316C128.532 149.922 129.518 149.527 130.308 149.724C131.097 149.922 131.294 150.908 131.491 151.5C131.688 151.894 131.688 152.486 131.886 152.88C132.083 153.472 132.28 154.064 132.477 154.656C132.675 155.445 132.675 156.037 132.872 156.826C132.872 157.22 132.872 157.812 133.069 158.404Z" fill="url(#paint4_linear_303_610)"/>
<path fill-rule="evenodd" clip-rule="evenodd" d="M26.5468 28.2091C26.5468 28.2091 30.6893 36.8888 41.5389 44.7794C41.5389 44.7794 37.9881 32.1544 35.4237 27.0255C35.4237 27.0255 31.8729 23.672 26.5468 28.2091Z" fill="#FFFF0E"/>
<path fill-rule="evenodd" clip-rule="evenodd" d="M83.5562 54.8396C83.5562 54.8396 90.8549 51.8807 93.2221 53.0642C93.2221 52.867 86.1206 54.8396 83.5562 54.8396Z" fill="#FFFF0E"/>
<path fill-rule="evenodd" clip-rule="evenodd" d="M108.215 47.9355C109.595 47.541 110.976 47.1464 112.16 46.5546C113.344 46.1601 114.33 45.5683 115.513 44.9765C116.894 44.1875 118.275 43.3984 119.459 42.4121C119.853 42.2148 120.051 42.0176 120.445 41.8203C120.84 41.623 121.234 41.2285 121.629 41.0312C122.023 40.834 122.22 40.4394 122.615 40.2422C123.009 40.0449 123.207 39.6504 123.601 39.4531C124.193 39.0586 124.785 38.4668 125.179 38.0723C125.377 37.875 125.574 37.6777 125.968 37.2832C126.166 37.0859 126.363 37.0859 126.56 37.0859C126.56 37.2832 126.363 37.6777 126.363 37.875C126.166 38.2695 125.968 38.4668 125.771 38.8613C125.377 39.6504 124.588 40.0449 123.996 40.834C123.601 41.2285 123.207 41.623 122.615 42.0176C122.023 42.4121 121.234 42.8066 120.445 43.2011C119.656 43.5957 118.867 43.7929 118.275 44.1875C117.683 44.582 116.894 44.9765 116.302 45.1738C115.908 45.3711 115.316 45.7656 114.922 45.9629C114.527 46.1601 114.133 46.3574 113.738 46.5546C113.146 46.9492 112.554 47.1464 111.963 47.541C111.568 47.7382 111.371 47.7382 110.976 47.9355C110.385 48.33 109.398 48.5273 108.609 48.5273C108.412 48.5273 108.017 48.5273 107.82 48.5273C107.623 48.5273 107.426 48.33 107.426 48.33C107.82 48.1328 108.017 47.9355 108.215 47.9355Z" fill="#FFFF0E"/>
<path fill-rule="evenodd" clip-rule="evenodd" d="M127.941 35.1134C127.547 35.3107 127.349 35.508 126.955 35.9025C126.955 36.0998 126.758 36.297 127.152 36.297C127.547 36.297 127.744 36.0998 128.138 35.7052C128.336 35.508 128.533 35.1134 128.336 34.9162C128.138 34.7189 127.744 34.9162 127.547 35.1134H127.941Z" fill="#FFFF0E"/>
<path fill-rule="evenodd" clip-rule="evenodd" d="M143.919 9.66601C143.722 10.0605 143.328 10.4551 143.13 10.8496C142.933 11.2441 142.933 11.4414 142.736 11.8359C142.539 12.4277 142.341 13.2168 142.144 13.8086C141.75 14.9922 141.552 16.373 140.96 17.5566C140.763 18.1484 140.566 18.5429 140.171 19.1347C139.974 19.332 139.777 19.7265 139.777 19.9238C139.58 20.1211 139.58 20.3183 139.382 20.7128C139.185 20.9101 139.185 21.1074 138.988 21.3047C138.791 21.5019 138.79 21.8964 138.593 22.0937C138.396 22.291 138.002 22.8828 138.199 23.08C138.396 23.08 138.396 22.8828 138.593 22.8828C138.79 22.6855 139.185 22.4882 139.382 22.0937C139.974 21.6992 140.369 21.1074 140.763 20.5156C140.96 20.3183 141.158 20.1211 141.355 19.7265C141.552 19.332 141.947 19.1347 142.144 18.7402C142.539 18.1484 143.13 17.5566 143.525 17.1621C143.722 16.9648 143.919 16.5703 144.117 16.373C144.314 16.1758 144.511 15.9785 144.709 15.584C145.498 14.7949 146.089 14.0058 146.878 13.2168C147.47 12.625 147.865 11.8359 148.456 11.2441C148.851 10.6523 149.246 10.0605 149.443 9.46875C149.64 9.27149 149.837 8.67969 149.837 8.48243C149.64 8.0879 149.246 7.89062 148.851 7.89062C148.259 7.89062 147.668 7.89062 147.076 7.89062C146.484 8.08789 146.089 8.28516 145.498 8.48243C145.103 8.67969 144.709 9.07422 144.117 9.27148C143.919 9.66601 143.525 9.86328 143.919 9.66601Z" fill="#FFFF0E"/>
<path fill-rule="evenodd" clip-rule="evenodd" d="M148.653 20.9104C148.456 21.3049 148.259 21.6995 148.061 22.094C147.864 22.2913 147.667 22.6858 147.469 22.883C147.075 23.4748 146.878 24.0666 146.483 24.4612C145.891 25.4475 145.102 26.4338 144.708 27.4201C144.51 27.8147 144.313 28.2092 144.116 28.6037C143.919 28.9983 143.721 29.5901 143.721 29.9846C143.524 30.3791 143.524 30.7736 143.327 31.3654C143.327 31.76 143.13 32.1545 143.13 32.549C143.524 32.1545 143.721 31.5627 144.116 31.1682C144.313 30.7737 144.51 30.3791 144.905 30.1819C145.299 29.9846 145.497 29.5901 145.694 29.1955C145.891 28.801 146.286 28.6037 146.483 28.2092C146.68 27.8147 146.878 27.6174 147.075 27.2229C147.272 27.0256 147.469 26.6311 147.667 26.2366C147.864 25.842 148.061 25.4475 148.258 25.053C148.456 24.2639 148.85 23.4748 149.048 22.6858C149.048 22.2912 149.245 21.8967 149.048 21.5022C149.048 21.3049 148.653 20.5159 148.653 20.9104Z" fill="#FFFF0E"/>
<path fill-rule="evenodd" clip-rule="evenodd" d="M142.144 33.7324C141.947 34.3242 141.749 34.7188 141.749 35.3106C141.749 35.5078 141.749 35.7051 141.749 35.7051C141.947 35.7051 142.144 35.7051 142.144 35.5078C142.341 35.5078 142.341 35.3106 142.341 35.1133C142.538 34.916 142.736 34.5215 142.538 34.127C142.538 33.7324 142.144 33.5352 141.946 33.9297L142.144 33.7324Z" fill="#FFFF0E"/>
<path fill-rule="evenodd" clip-rule="evenodd" d="M132.478 60.758C131.491 61.7443 130.111 62.7307 129.322 63.9143C129.322 64.1115 128.73 64.5061 128.927 64.7033C129.124 64.9006 129.519 64.7033 129.716 64.7033C130.308 64.5061 130.9 64.1115 131.491 63.9143C131.886 63.717 132.28 63.3225 132.675 63.1252C133.661 62.5334 134.45 61.7443 135.239 60.758C135.634 60.3635 135.831 59.969 136.028 59.5744C136.028 59.3772 136.226 58.9826 136.226 58.9826C136.029 58.3908 134.845 58.9826 134.648 59.1799C134.45 59.3772 134.056 59.5744 133.859 59.7717C133.661 59.969 133.464 60.1662 133.267 60.1662C133.07 60.3635 132.872 60.5608 132.478 60.758C132.478 60.9553 132.28 61.1526 132.478 60.758Z" fill="#FFFF0E"/>
<path fill-rule="evenodd" clip-rule="evenodd" d="M127.743 65.6893C127.349 65.8866 126.954 66.0839 126.757 66.2811C126.757 66.4784 126.363 66.6757 126.56 66.8729C126.757 67.0702 127.152 66.8729 127.152 66.8729C127.349 66.8729 127.546 66.6757 127.743 66.4784C127.743 66.0839 127.743 66.0839 127.743 65.6893Z" fill="#FFFF0E"/>
<path fill-rule="evenodd" clip-rule="evenodd" d="M103.48 88.7693C102.691 89.3611 101.704 89.9529 100.718 90.5447C99.5345 91.1365 98.351 91.531 97.3646 92.1228C95.5892 93.1091 93.8138 93.8982 92.0385 94.6872C91.8412 94.8845 89.0795 95.8708 90.0658 96.4626C90.4603 96.6599 91.0521 96.6599 91.4467 96.6599C91.8412 96.6599 92.2357 96.8571 92.6302 96.8571C93.0248 96.8571 93.4193 96.8571 93.8138 96.8571C95.9837 96.8571 98.351 96.2654 100.324 95.4763C100.718 95.279 101.31 95.0818 101.704 94.8845C101.902 94.6872 102.099 94.49 102.493 94.2927C102.888 93.8982 103.283 93.5036 103.48 92.9118C103.874 92.1228 104.072 91.531 104.072 90.5447C104.072 90.1501 103.874 89.9529 103.677 89.5584C103.677 89.3611 103.48 89.1638 103.48 88.7693Z" fill="#FFFF0E"/>
<path fill-rule="evenodd" clip-rule="evenodd" d="M88.093 95.4764C87.6984 95.2792 87.1067 94.8846 86.5149 94.8846C86.3176 94.8846 86.1203 94.8846 85.923 94.8846C85.5285 94.8846 84.9367 95.0819 84.5422 95.2792C84.1477 95.6737 85.134 96.0682 85.5285 96.2655C85.9231 96.4628 86.7121 96.4628 87.1066 96.2655C87.5012 96.2655 88.093 95.871 88.093 95.4764C88.2902 95.4764 88.2902 95.4764 88.2902 95.4764H88.093Z" fill="#FFFF0E"/>
<path fill-rule="evenodd" clip-rule="evenodd" d="M116.696 89.3611C118.669 88.7693 120.642 87.9802 122.417 86.9939C123.206 86.5993 123.798 86.2048 124.587 85.8103C124.981 85.613 125.573 85.2185 125.968 85.0212C126.165 85.0212 127.349 84.2322 127.546 84.6267C127.743 85.0212 126.56 85.8103 126.362 86.0076C125.968 86.4021 125.376 86.7966 124.784 87.1912C124.39 87.5857 123.798 87.5857 123.403 87.9802C122.812 88.3747 122.22 88.572 121.431 88.9665C121.036 89.1638 120.444 89.3611 120.05 89.5583C119.655 89.7556 119.261 89.7556 118.866 89.9529C118.669 89.9529 118.274 89.9529 118.077 89.9529C117.683 89.7556 116.894 89.9529 116.696 89.3611Z" fill="#FFFF0E"/>
<path fill-rule="evenodd" clip-rule="evenodd" d="M160.686 100.211C161.672 100.211 162.856 100.408 163.842 100.211C164.631 100.013 165.223 100.013 166.012 99.8162C167.393 99.6189 168.971 99.2244 170.352 99.2244C170.944 99.2244 171.536 99.2244 172.127 99.2244C172.522 99.2244 172.916 99.2244 173.114 99.2244C173.311 99.2244 173.706 99.4217 173.706 99.619C174.1 100.013 173.705 100.013 173.508 100.013C172.916 100.211 172.522 100.605 171.93 100.605C170.944 100.803 170.155 101 169.168 101.197C168.577 101.197 167.985 101.197 167.196 101.197C166.407 101.394 165.618 101.394 164.631 101.394C163.842 101.394 163.25 101.394 162.461 101.394C161.87 101.394 161.475 101.197 160.883 101.197C160.489 101.197 160.094 101.197 159.897 101C160.094 101.197 159.7 100.803 160.686 100.211Z" fill="#FFFF0E"/>
<path fill-rule="evenodd" clip-rule="evenodd" d="M184.359 101.197C185.542 101.394 186.331 101.394 187.515 101.197C188.304 101 189.093 101 189.685 100.802C190.671 100.605 191.855 100.211 192.841 99.6188C193.433 99.2242 194.419 98.6324 195.011 98.8297C195.603 99.027 196.195 99.6188 196.195 100.211C196.195 101 195.406 101.394 195.011 101.789C194.222 102.38 192.841 102.775 191.855 102.775C190.671 102.775 189.29 102.578 188.107 102.38C187.712 102.38 187.318 102.183 186.923 102.183C186.529 101.986 185.739 101.986 184.359 101.197Z" fill="#FFFF0E"/>
<path fill-rule="evenodd" clip-rule="evenodd" d="M187.12 55.0372C187.12 55.8262 186.528 57.9962 187.514 58.5879C188.106 58.9825 188.303 57.9962 188.303 57.6016C188.501 57.0098 188.106 55.4317 187.12 55.0372Z" fill="#FFFF0E"/>
<path fill-rule="evenodd" clip-rule="evenodd" d="M10.9625 74.3688C11.9488 75.5524 12.5406 76.736 13.7242 77.3278C14.5133 77.7223 15.1051 78.3141 15.8941 78.5114C16.6832 78.7087 17.6695 78.9059 18.4586 78.9059C18.8531 78.9059 19.0504 78.9059 19.0504 78.3141C19.0504 78.1169 18.8531 77.7223 18.6558 77.5251C18.4586 77.1305 18.064 76.9333 17.6695 76.5387C17.275 76.1442 17.0777 75.7497 16.6832 75.3552C15.3023 74.1716 13.9215 73.3825 12.1461 72.7907C11.5543 72.5934 11.5543 72.5934 10.9625 72.7907C10.568 72.988 10.568 72.988 10.3707 73.3825C10.3707 73.9743 10.7652 74.5661 11.1598 75.1579L10.9625 74.3688Z" fill="#FFFF0E"/>
<path fill-rule="evenodd" clip-rule="evenodd" d="M11.7517 92.7149C13.1326 95.0821 14.9079 97.0548 16.6833 99.2247C17.8669 100.606 18.656 102.578 20.0368 103.959C20.2341 104.156 22.7985 106.326 22.7985 105.143C22.7985 104.945 22.0095 103.762 22.0095 103.565C21.615 102.973 21.2204 102.184 20.6286 101.592C20.2341 101 19.6423 100.606 19.4451 100.014C19.0505 99.422 18.656 99.0274 18.2615 98.4356C17.6697 97.8438 17.2751 96.8575 16.8806 96.2657C16.4861 95.6739 15.8943 94.8849 15.4998 94.2931C14.908 93.3067 14.1189 92.3204 13.1326 91.9259C12.9353 91.7286 12.5408 91.5314 12.1463 91.7286C11.1599 92.3204 11.5544 93.504 11.7517 92.7149Z" fill="#FFFF0E"/>
<path fill-rule="evenodd" clip-rule="evenodd" d="M101.704 136.705C103.874 136.31 105.452 135.916 107.622 136.508C108.608 136.705 109.595 137.099 110.581 137.297C111.173 137.494 112.159 137.691 112.554 138.086C112.948 138.677 112.948 139.467 112.356 139.861C111.765 140.453 110.384 140.256 109.595 140.256C108.017 140.058 106.636 139.861 105.058 139.467C104.269 139.269 103.085 138.875 102.296 138.283C102.099 138.086 101.31 137.297 101.704 136.705Z" fill="#FFFF0E"/>
<path fill-rule="evenodd" clip-rule="evenodd" d="M130.307 147.752C129.321 147.554 129.124 145.582 129.518 144.793C129.716 144.398 129.913 143.609 130.505 143.412C130.899 143.215 131.096 143.609 131.491 143.609C131.096 144.595 130.505 145.385 129.913 146.174L130.307 147.752Z" fill="#FFFF0E"/>
<path fill-rule="evenodd" clip-rule="evenodd" d="M169.564 147.16C170.945 146.174 171.931 145.582 173.51 145.187C174.299 144.99 175.088 144.793 175.877 144.595C176.863 144.398 177.652 143.806 178.638 143.806C179.033 143.806 179.23 143.806 179.625 143.609C180.019 143.609 179.822 143.412 180.217 143.609C181.006 144.004 180.611 144.595 180.217 144.99C179.23 145.779 178.441 146.174 177.258 146.371C176.469 146.568 176.074 146.963 175.285 147.16C174.89 147.357 174.496 147.357 174.101 147.554C172.326 147.949 170.551 147.554 169.564 147.16Z" fill="#FFFF0E"/>
<path fill-rule="evenodd" clip-rule="evenodd" d="M44.1028 143.806C44.8919 145.581 45.6809 147.357 46.8645 148.935C47.4563 149.724 47.8508 150.316 48.6399 150.71C49.2317 150.908 49.8235 151.105 49.8235 150.119C49.8235 149.724 49.4289 148.935 49.2316 148.54C48.4426 147.16 47.4563 146.173 46.6672 144.99C46.2727 144.595 45.8782 143.806 45.4836 143.609C44.8918 143.412 43.9055 143.017 44.1028 143.806Z" fill="#FFFF0E"/>
<path fill-rule="evenodd" clip-rule="evenodd" d="M80.5972 183.654C82.7671 183.259 84.5425 182.47 86.5151 181.878C87.3042 181.484 88.0932 181.484 89.0795 181.484L89.2768 181.286C89.4741 181.286 89.8686 181.286 90.0659 181.286C90.2631 181.286 91.2495 181.089 91.4467 181.286C92.2358 181.878 90.6577 183.456 90.2631 183.654C88.8823 185.034 86.7124 185.823 84.5425 185.626C83.5561 185.429 82.5698 185.034 81.5835 184.837C80.9917 184.837 79.6108 184.443 79.6108 183.654C79.8081 183.851 79.8081 183.654 80.5972 183.654Z" fill="#FFFF0E"/>
<path fill-rule="evenodd" clip-rule="evenodd" d="M116.894 162.547C115.119 163.73 112.949 164.914 111.568 166.887C110.582 168.267 112.357 167.873 113.146 167.676C113.738 167.478 114.33 167.281 114.724 166.887C115.119 166.492 115.513 166.295 115.908 165.703C116.302 165.308 116.499 165.111 116.894 164.914C117.091 164.519 117.289 163.928 117.683 163.73C117.683 163.533 117.486 163.533 117.486 163.336L116.894 162.547Z" fill="#FFFF0E"/>
<path fill-rule="evenodd" clip-rule="evenodd" d="M65.9994 133.943C67.3803 133.351 68.7611 132.957 69.9447 132.168C71.1283 131.576 72.3119 130.787 73.4955 130.195C75.0737 129.406 76.6518 128.42 78.4272 128.222C79.019 128.222 79.6107 127.828 80.2025 128.222C80.7943 128.42 80.9916 128.617 81.3861 129.011C82.3725 130.392 80.3998 131.576 79.4135 132.168C78.6244 132.759 78.0326 133.351 77.0463 133.746C76.06 134.14 75.0736 134.338 74.0873 134.732C72.5092 135.324 70.7338 136.113 68.9584 136.31C67.9721 136.507 67.183 136.113 66.394 135.521C65.9995 135.324 65.6049 134.929 65.4077 134.535C65.2104 134.338 65.0131 133.943 65.9994 133.943Z" fill="#FFFF0E"/>
</g>
<defs>
<filter id="filter0_d_303_610" x="0" y="0" width="202" height="196.599" filterUnits="userSpaceOnUse" color-interpolation-filters="sRGB">
<feFlood flood-opacity="0" result="BackgroundImageFix"/>
<feColorMatrix in="SourceAlpha" type="matrix" values="0 0 0 0 0 0 0 0 0 0 0 0 0 0 0 0 0 0 127 0" result="hardAlpha"/>
<feOffset dy="4"/>
<feGaussianBlur stdDeviation="2"/>
<feComposite in2="hardAlpha" operator="out"/>
<feColorMatrix type="matrix" values="0 0 0 0 0 0 0 0 0 0 0 0 0 0 0 0 0 0 0.25 0"/>
<feBlend mode="normal" in2="BackgroundImageFix" result="effect1_dropShadow_303_610"/>
<feBlend mode="normal" in="SourceGraphic" in2="effect1_dropShadow_303_610" result="shape"/>
</filter>
<radialGradient id="paint0_radial_303_610" cx="0" cy="0" r="1" gradientUnits="userSpaceOnUse" gradientTransform="translate(43.6456 49.4151) scale(150.122 150.122)">
<stop offset="0.00558659" stop-color="#9D9D94"/>
<stop offset="0.2018" stop-color="#DFD2C1"/>
<stop offset="0.3542" stop-color="#C2B5A2"/>
<stop offset="0.4919" stop-color="#D5C8B5"/>
<stop offset="0.6209" stop-color="#A09277"/>
<stop offset="0.7437" stop-color="#847B60"/>
<stop offset="0.8606" stop-color="#736950"/>
<stop offset="0.942708" stop-color="#A09277"/>
</radialGradient>
<linearGradient id="paint1_linear_303_610" x1="8.06768" y1="67.4882" x2="142.503" y2="67.4882" gradientUnits="userSpaceOnUse">
<stop offset="0.0111732" stop-color="#D7CAB7"/>
<stop offset="0.2983" stop-color="#E1DAC0"/>
<stop offset="0.695" stop-color="#EDE0CE"/>
<stop offset="0.8659" stop-color="#C3B6A2"/>
<stop offset="1" stop-color="#9A968B"/>
</linearGradient>
<linearGradient id="paint2_linear_303_610" x1="7.64013" y1="52.8912" x2="172.747" y2="52.8912" gradientUnits="userSpaceOnUse">
<stop offset="0.00558659" stop-color="#FFB80B"/>
<stop offset="0.388" stop-color="#FFB60C"/>
<stop offset="0.5789" stop-color="#FEAE10"/>
<stop offset="0.7274" stop-color="#FCA117"/>
<stop offset="0.8539" stop-color="#FA8E21"/>
<stop offset="0.9655" stop-color="#F7762E"/>
<stop offset="1" stop-color="#F66D33"/>
</linearGradient>
<radialGradient id="paint3_radial_303_610" cx="0" cy="0" r="1" gradientUnits="userSpaceOnUse" gradientTransform="translate(22.1351 136.857) scale(47.4671 47.4671)">
<stop offset="0.00558659" stop-color="#FFB80B"/>
<stop offset="0.388" stop-color="#FFB60C"/>
<stop offset="0.5789" stop-color="#FEAE10"/>
<stop offset="0.7274" stop-color="#FCA117"/>
<stop offset="0.8539" stop-color="#FA8E21"/>
<stop offset="0.9655" stop-color="#F7762E"/>
<stop offset="1" stop-color="#F66D33"/>
</radialGradient>
<linearGradient id="paint4_linear_303_610" x1="4.45812" y1="121.024" x2="198.046" y2="121.024" gradientUnits="userSpaceOnUse">
<stop offset="0.00558659" stop-color="#FFB80B"/>
<stop offset="0.388" stop-color="#FFB60C"/>
<stop offset="0.5789" stop-color="#FEAE10"/>
<stop offset="0.7274" stop-color="#FCA117"/>
<stop offset="0.8539" stop-color="#FA8E21"/>
<stop offset="0.9655" stop-color="#F7762E"/>
<stop offset="1" stop-color="#F66D33"/>
</linearGradient>
</defs>
</svg>
